<?xml version="1.0" encoding="UTF-8"?>
<svg id="Layer_2" data-name="Layer 2" xmlns="http://www.w3.org/2000/svg" viewBox="0 0 774.95 638.89">
  <defs>
    <style>
      .cls-1 {
        stroke: #000;
      }

      .cls-1, .cls-2, .cls-3 {
        stroke-miterlimit: 10;
        stroke-width: 9px;
      }

      .cls-1, .cls-3 {
        fill: #8b8b94;
      }

      .cls-2 {
        fill: none;
      }

      .cls-2, .cls-3 {
        stroke: #040000;
      }

      .cls-4 {
        font-family: NanumPen, 'Nanum Pen Script';
        font-size: 115.8px;
      }

      .cls-4, .cls-5 {
        fill: #000;
      }

      .cls-5, .cls-6 {
        stroke-width: 0px;
      }

      .cls-6 {
        fill: #040000;
      }
    </style>
  </defs>
  <g id="Layer_1-2" data-name="Layer 1">
    <polygon class="cls-1" points="301.56 625.42 98.49 623.48 35.8 234.72 371.43 234.72 301.56 625.42"/>
    <path class="cls-3" d="M364.95,97.09c.28,12.2-25.55,17.64-164.14,69.6-134.81,50.55-157.13,62.93-165.17,53.86-16.52-18.63,39.48-113.93,130.61-148.1,91.1-34.16,198.14-.05,198.7,24.64Z"/>
    <g>
      <path class="cls-5" d="M186.36,187.67c-7.43,1.6-14.61,4.12-21.3,6.87-6.69,2.75-13.27,5.66-19.74,8.6-1.67.75-3.02.99-4.03.78-1.01-.22-1.56-.52-1.65-.94.35-.83,1.13-1.64,2.33-2.44,14.22-7.37,27.93-13.3,43.45-17.36.75-.06,1.43.16,2.03.64.6.48.86.98.82,1.44-.05.57-.16,1.09-.37,1.52-.22.43-.75.71-1.54.89ZM176.32,217.27c.1.53-.06,1.04-.54,1.5-.47.46-1.12.77-1.92.92-1.45.27-2.48.15-3.03-.28-.55-.44-.96-.97-1.13-1.56-.88-3.08-1.57-6.51-2.37-9.73-.8-3.21-1.74-6.4-2.79-9.53-.04-.18-.12-.39-.25-.63-.13-.23-.18-.49-.16-.76.02-.27.13-.53.35-.77.21-.25.6-.49,1.17-.73,1.63-.6,2.87-.73,3.72-.36.84.37,1.33.83,1.44,1.35,1.32,3.32,2.43,6.73,3.31,10.16.88,3.43,1.56,7,2.21,10.4Z"/>
      <path class="cls-5" d="M228.84,181.71c-1.08,1.01-2.4,2.04-3.67,3.1-1.27,1.06-2.53,2.23-3.76,3.49-1.24,1.26-2.37,2.64-3.4,4.14-1.03,1.5-1.89,3.2-2.58,5.06-.98,2.63-1.5,5.19-1.52,7.69-.02,2.51.07,5.01.45,7.28.18,1.08.14,2.26-.27,3.45-.4,1.19-1.17,1.81-2.29,1.89-1.42.1-2.69-.4-3.78-1.48-1.1-1.08-1.9-2.13-2.42-3.15-2.12-4.03-3.99-7.95-5.63-11.79-1.63-3.84-3.14-7.63-4.52-11.37-.16-.79.04-1.37.61-1.75.57-.38,1.26-.65,2.07-.79.88-.16,1.75-.2,2.61-.11.86.09,1.47.46,1.71,1.05.79,1.97,1.57,4.3,2.5,6.61.93,2.31,1.8,4.3,2.59,5.96-.12-2.08.28-4.2,1.21-6.4.92-2.2,2.19-4.32,3.79-6.39,1.6-2.06,3.51-3.98,5.71-5.76,2.2-1.78,4.52-3.23,6.98-4.32,1.06-.43,1.97-.68,2.72-.74.75-.06,1.31.04,1.66.3.36.26.52.79.49,1.59-.03.8-.46,1.69-1.28,2.46Z"/>
      <path class="cls-5" d="M262.06,170.23c.73,2.11,1.42,4.42,2.09,6.87.67,2.45,1.31,4.94,1.92,7.46.61,2.52,1.15,4.97,1.62,7.36.47,2.39.85,4.55,1.15,6.47,2.71,1.41,4.45,2.8,5.2,4.12.75,1.32,1.02,2.56.88,3.63-.19,1.47-.82,2.34-1.96,2.5-1.15.16-2.55-.13-4.21-.84-.89.9-1.91,1.87-3.08,2.9-1.17,1.02-2.42,2-3.75,2.93-1.34.93-2.7,1.75-4.07,2.46-1.38.71-2.69,1.23-3.91,1.52-2.3.55-4.57.22-6.72-.86-2.15-1.08-3.81-2.79-4.95-5.12-.77-1.57-1.21-3.23-1.34-4.98-.12-1.75.11-3.47.68-5.19.57-1.72,1.49-3.35,2.74-4.89,1.25-1.54,2.84-2.87,4.75-3.98.47-.31,1.15-.63,2.04-.95.89-.32,1.83-.55,2.83-.7,1-.15,2.05-.13,3.16.07,1.1.19,2.19.67,3.26,1.44-.26-1.31-.56-2.76-.91-4.33-.35-1.57-.72-3.16-1.11-4.76-.39-1.6-.78-3.1-1.17-4.49-.39-1.4-.77-2.58-1.1-3.53-.38-1.1-.93-1.71-1.67-1.8-.74-.09-1.58.2-2.53.84-1.62,1.06-3.43,2.74-5.42,4.99-2,2.25-3.87,4.53-5.62,6.84-.53.78-1.23,1.22-2.08,1.33-.86.11-1.63-.06-2.33-.49-.7-.43-1.15-1-1.37-1.71-.22-.71-.08-1.56.41-2.55.99-1.55,2.11-3.18,3.37-4.92,1.26-1.74,2.6-3.4,4.05-4.99,1.44-1.58,2.96-3.01,4.54-4.25,1.59-1.25,3.25-2.19,4.95-2.77,2.49-.84,4.57-.82,6.2.07,1.62.89,2.8,2.33,3.48,4.29ZM254.21,197.71c-.92.37-1.84,1-2.77,1.86-.93.86-1.73,1.85-2.38,2.95-.66,1.1-1.07,2.27-1.24,3.52-.17,1.25.04,2.42.65,3.54.23.42.62.71,1.15.88.53.17,1.08.16,1.64-.05,1.72-.55,3.6-1.47,5.66-2.82,2.05-1.34,3.62-2.76,4.7-4.25-.09-.46-.43-1.03-1.02-1.7-.59-.67-1.25-1.33-1.99-1.96-.73-.64-1.51-1.17-2.31-1.59-.8-.42-1.5-.54-2.07-.38Z"/>
      <path class="cls-5" d="M296.08,171.04c-.3-.93-.66-1.86-.98-2.72-.32-.86-.79-1.35-1.43-1.47-1.32-.13-2.64.16-3.95.87-1.31.7-2.48,1.57-3.5,2.59-1.02,1.02-1.85,2.08-2.47,3.17-.63,1.09-.89,2-.85,2.68.07,1.28.56,2.5,1.6,3.52,1.04,1.03,2.44,1.99,4.22,2.9,2.92,1.31,5.97,2.7,9.15,4.18,3.18,1.47,5.93,3.13,8.26,4.95,2.33,1.82,4.1,3.98,5.29,6.46,1.2,2.48,1.61,5.45,1.18,8.81-.33,2.6-1.47,4.79-3.42,6.52-1.94,1.74-4.19,3.11-6.72,4.13-2.54,1.02-5.13,1.74-7.77,2.2-2.64.45-4.91.72-6.79.82-.45.02-1.03-.14-1.75-.48-.71-.34-1.4-.75-2.06-1.22-.66-.47-1.25-.96-1.77-1.47-.52-.51-.82-.97-.9-1.39-.29-1.49.11-2.57,1.19-3.26,1.08-.68,2.26-1.09,3.53-1.2,1.79-.16,3.7-.43,5.71-.83,2.01-.4,3.9-.93,5.68-1.59,1.77-.66,3.32-1.47,4.66-2.44,1.33-.96,2.17-2.12,2.52-3.46.3-1.15-.26-2.42-1.7-3.77-1.44-1.35-3.26-2.7-5.46-4.02-2.2-1.33-4.53-2.56-6.99-3.68-2.46-1.13-4.58-2.14-6.36-3.05-1.78-.92-3.38-2.09-4.8-3.5-1.42-1.42-2.64-3.36-3.27-5.63-.56-2.02-.5-4.3-.01-6.51.48-2.21,1.28-4.28,2.39-6.22,1.11-1.94,2.48-3.64,4.1-5.1,1.62-1.46,3.37-2.53,5.14-2.99,3.03-.79,5.91-.43,8.31.94,2.4,1.37,4.16,3.96,5.27,7.72.25,1.28.29,2.38.12,3.28-.17.9-.65,1.56-1.41,1.9-.96.43-1.84.44-2.55.09-.71-.35-1.17-.95-1.42-1.71Z"/>
      <path class="cls-5" d="M316.3,144.11c.45,2.34.94,4.98,1.46,7.92.52,2.94,1.11,5.97,1.74,9.09.64,3.12,1.29,6.34,1.96,9.66.67,3.32,1.34,6.5,1.99,9.53.36-2.1.87-4.22,1.52-6.36.66-2.14,1.48-4.11,2.47-5.9.99-1.79,2.11-3.32,3.35-4.57,1.25-1.25,2.7-2.1,4.38-2.51,1.82-.45,3.6-.02,5.33,1.31,1.74,1.33,3.4,3.28,5,5.86,1.59,2.57,3.09,5.53,4.48,8.87,1.39,3.33,2.67,6.77,3.84,10.3,1.16,3.53,2.17,6.94,3.02,10.21.85,3.27,1.66,6.15,2.17,8.46.37,1.67.3,3.17-.1,4.3-.39,1.13-1,1.72-1.83,1.79-.6.05-1.44-.46-2.51-1.51-1.07-1.05-2-2.37-2.62-3.91-.49-1.21-1.04-3.08-1.73-5.49-.68-2.41-1.44-4.99-2.27-7.74-.83-2.75-1.73-5.51-2.71-8.27-.98-2.76-2-5.21-3.05-7.33-1.05-2.12-2.13-3.72-3.25-4.78-1.12-1.06-2.24-1.31-3.34-.75-1.73.88-2.99,3.01-3.77,6.3-.78,3.29-1.31,6.9-1.58,10.85-.27,3.95-.36,7.89-.25,11.83.11,3.94.29,7.15.39,9.5.08,1.77-.12,3.05-.49,3.72-.36.68-.85,1.03-1.45,1.07-.6.04-1.22-.31-1.85-1.06-.64-.74-1.27-1.66-1.89-2.74-.62-1.08-1.2-2.21-1.73-3.39-.53-1.18-.92-2.2-1.16-3.06-1.37-5.17-2.62-10.1-3.75-14.82-1.13-4.71-2.21-9.44-3.24-14.2-1.03-4.75-2.02-9.63-2.98-14.63-.96-5-1.86-10.47-2.87-16.13-.84-4.71-.04-7.35,2.63-7.75.9-.1,1.81.48,2.74,1.77.93,1.29,1.57,2.82,1.91,4.58Z"/>
    </g>
    <path class="cls-2" d="M215.64,39.83c12.53,26.39-27.99,20.93-66.51,38.32-38.52,17.39-60.47,51.06-72.99,24.67-12.53-26.39,8.55-61.88,47.07-79.27s79.91-10.1,92.43,16.29Z"/>
    <g>
      <path class="cls-5" d="M523.41,279.55c-6.2,1.04-12.44,2.23-18.67,3.59-6.24,1.36-12.42,2.71-18.52,4.04-6.1,1.33-12.07,2.6-17.9,3.79-5.83,1.19-11.48,2.13-16.98,2.76-5.51.63-10.79.87-15.94.63-5.15-.24-10.17-1.1-15.21-2.67-.79-.25-1.41-.62-1.87-1.12-.46-.5-.79-1.04-.98-1.61-.19-.58-.25-1.14-.17-1.68.08-.54.39-.99.92-1.35.8-.53,1.88-.84,3.22-.93,1.35-.09,2.9.03,4.64.36,4.98,1.2,9.86,1.91,14.72,2.18,4.86.27,9.86.13,15.05-.37,5.19-.5,10.65-1.39,16.43-2.6,5.77-1.21,11.99-2.74,18.65-4.51-2.07-.25-4.26-.58-6.55-.99-2.3-.41-4.42-.91-6.38-1.51-1.96-.6-3.7-1.28-5.24-2.04-1.54-.76-2.57-1.59-3.1-2.48-.43-.74-.53-1.56-.28-2.46.25-.9,1.11-1.95,2.61-3.13,1.89-1.39,4.17-2.73,6.83-4.02,2.65-1.29,5.29-2.43,7.9-3.44,2.61-1.01,4.99-1.85,7.14-2.54,2.15-.69,3.67-1.12,4.57-1.33,1.09-.3,2.2-.47,3.3-.53,1.1-.06,1.93.18,2.5.71.8.73,1.1,1.47.91,2.23-.19.76-.84,1.38-1.97,1.84-1.15.41-2.95,1.02-5.4,1.85-2.45.82-4.81,1.74-7.1,2.75-2.29,1.01-4.23,2.02-5.83,3.02-1.6,1-2.2,1.85-1.8,2.52.46.78,1.85,1.52,4.18,2.22,2.33.7,5.16,1.26,8.49,1.7,3.33.44,6.9.7,10.71.8,3.82.1,7.36-.09,10.61-.59.7-.1,1.54-.18,2.53-.21.99-.03,1.98,0,2.98.08.99.08,1.89.22,2.7.42.8.2,1.36.44,1.66.74.72.79.66,1.59-.18,2.4-.84.81-1.91,1.3-3.19,1.48Z"/>
      <path class="cls-5" d="M544.44,304.17c-.36,1.7-1.52,3.2-3.47,4.54-1.95,1.34-4.38,2.47-7.27,3.45-2.9.97-6.02,1.75-9.37,2.36-3.35.61-6.59.99-9.74,1.14-3.58.06-7.17.03-10.77-.12-3.6-.14-6.89-.44-9.9-.91-3.01-.48-5.64-1.19-7.91-2.17-2.27-.98-3.89-2.32-4.9-4.02-1.22-2.05-1.21-4.1.05-6.1,1.26-2,3.32-3.85,6.21-5.51,2.89-1.66,6.42-3.09,10.63-4.25,4.2-1.16,8.6-1.98,13.18-2.46,3.36-.37,6.74-.55,10.12-.53,3.38.02,6.5.27,9.36.73,2.86.47,5.35,1.13,7.48,1.98,2.12.85,3.58,1.94,4.35,3.24.43.73.65,1.68.66,2.85,0,1.16-.3,2.27-.92,3.33,1.81.54,2.54,1.37,2.19,2.45ZM529.81,302.67c.48-.68,1.17-1.48,2.08-2.4.9-.92,1.18-1.66.84-2.23-.37-.62-1.38-1.15-3.02-1.57-1.64-.42-3.45-.73-5.4-.91-1.96-.19-3.9-.29-5.83-.31-1.93-.02-3.44.01-4.55.1-1.83.15-3.98.43-6.43.85-2.45.42-4.79.98-7.01,1.69-2.22.71-4.09,1.58-5.62,2.6-1.53,1.02-2.33,2.21-2.43,3.56-.03.81.49,1.63,1.56,2.46,1.07.82,2.57,1.53,4.48,2.13,1.92.6,4.26,1.05,7.06,1.39,2.79.33,5.83.43,9.12.32,3.67-.12,7.21-.7,10.6-1.74,3.4-1.04,5.47-2.37,6.22-4.08-.8-.28-1.31-.61-1.53-.96-.21-.36-.27-.66-.16-.9Z"/>
      <path class="cls-5" d="M547.2,325.55c-3.37-.06-7.06-.03-11.08.12-4.02.15-7.82.45-11.41.9-3.59.44-6.73,1.02-9.43,1.7-2.7.68-4.47,1.42-5.31,2.17.17.92,1.59,1.69,4.29,2.37,2.69.68,5.93,1.25,9.74,1.77,3.8.53,7.83.99,12.07,1.41,4.24.43,7.89.75,10.93.89,1.54.1,3.12.18,4.74.25,1.62.07,3.25.07,4.89,0,.94-.04,2.01.21,3.21.76,1.2.55,1.96,1.02,2.3,1.4.27.27.33.59.18.96-.15.36-.46.71-.93,1.02-.47.32-1.08.61-1.82.88-.74.27-1.57.42-2.51.46-3.45.25-7.24.63-11.36,1.2-4.12.57-8.22,1.28-12.29,2.13-4.07.85-8,1.81-11.77,2.85-3.78,1.04-7.11,2.1-10.02,3.13-1.17.44-2.69.65-4.54.62-1.86-.03-3.11-.25-3.78-.69-.49-.37-.66-.85-.5-1.44.16-.59.84-1.19,2.05-1.79,1.43-.66,3.24-1.4,5.45-2.17,2.2-.78,4.56-1.52,7.06-2.22,2.5-.7,4.9-1.33,7.21-1.89,2.3-.56,4.27-.97,5.88-1.26-3.64-.3-7.38-.66-11.2-1.08-3.83-.41-7.38-.87-10.66-1.42-3.28-.55-6-1.23-8.16-2.1-2.17-.87-3.47-2-3.95-3.41-.63-2.1,2.6-4.85,9.96-7.74,2.96-1.13,6.41-2.08,10.38-2.8,3.96-.72,7.99-1.25,12.06-1.58,4.07-.34,7.98-.51,11.72-.54,3.74-.03,6.8.04,9.19.14,1,.04,1.98.19,2.93.47.95.27,1.43.63,1.44,1.08.11.83-.52,1.62-1.89,2.41-1.37.78-3.07,1.13-5.07,1.08Z"/>
      <path class="cls-5" d="M583.79,378.1c-1.6-1.21-3.29-2.45-5.07-3.71-1.79-1.26-3.79-2.5-6.01-3.71-2.22-1.21-4.72-2.33-7.5-3.34-2.78-1.01-5.96-1.87-9.55-2.52-5.06-.94-10.05-1.33-14.92-1.21-4.87.12-9.57.53-14.08,1.2-2.1.36-4.36.55-6.76.57-2.4.02-3.82-.3-4.28-1.04-.58-.93.07-1.94,1.97-3,1.9-1.05,3.84-1.87,5.81-2.46,7.75-2.38,15.62-4.17,23.47-5.39,7.84-1.22,15.68-1.96,23.36-2.25,1.61.03,2.76.31,3.47.81.71.5,1.17,1.07,1.38,1.7.24.69.24,1.34,0,1.95-.24.61-.96.94-2.15,1.01-4.1.07-8.42.3-12.96.72-4.54.42-8.44.96-11.66,1.52,4.12-.07,8.34.36,12.61,1.31,4.27.95,8.28,2.26,12.03,3.92,3.74,1.66,7.08,3.61,10.01,5.81,2.94,2.2,5.17,4.46,6.77,6.71.62.95.95,1.73,1.01,2.31.06.58-.13.96-.55,1.13-.43.16-1.26.08-2.5-.24-1.25-.32-2.55-.93-3.9-1.83Z"/>
      <path class="cls-5" d="M606.9,440.33c-1.19-1.65-2.47-3.34-3.87-5.06-1.39-1.72-2.98-3.47-4.79-5.22-1.81-1.75-3.9-3.45-6.28-5.08-2.38-1.63-5.16-3.17-8.38-4.56-4.54-1.97-9.16-3.32-13.78-4.08-4.62-.76-9.18-1.16-13.62-1.23-2.08.02-4.32-.16-6.73-.51-2.41-.35-3.85-.88-4.31-1.67-.58-1,.09-1.91,2.01-2.68,1.92-.77,3.87-1.29,5.84-1.58,7.72-1.19,15.36-1.67,22.71-1.49,7.35.17,14.43.91,21.06,2.16,1.39.36,2.36.88,2.94,1.55.58.67.95,1.36,1.11,2.06.18.77.16,1.44-.07,2.03-.23.58-.84.78-1.85.6-3.48-.78-7.24-1.42-11.3-1.89-4.06-.46-7.64-.65-10.64-.69,3.83.7,7.65,1.95,11.42,3.79,3.77,1.83,7.19,4.03,10.28,6.57,3.08,2.53,5.72,5.31,7.95,8.29,2.23,2.98,3.83,5.89,4.91,8.64.42,1.16.62,2.05.63,2.69,0,.63-.15.98-.47,1.06-.33.07-.94-.22-1.87-.86-.93-.64-1.9-1.59-2.91-2.85Z"/>
      <path class="cls-5" d="M614.25,472.18c-.36,1.68-1.13,2.7-2.37,3.08-1.24.39-2.77.28-4.67-.25-1.9-.53-4.03-1.39-6.43-2.53-2.4-1.13-4.85-2.42-7.32-3.85-2.81-1.75-5.78-3.54-8.89-5.37-3.11-1.83-6.1-3.59-8.91-5.33-2.81-1.75-5.35-3.49-7.55-5.29-2.21-1.8-3.83-3.65-4.81-5.61-1.18-2.36-1.12-4.28.2-5.77,1.32-1.49,3.43-2.58,6.28-3.19,2.85-.6,6.28-.75,10.17-.29,3.89.45,7.81,1.4,11.68,2.88,2.83,1.06,5.56,2.38,8.17,3.96,2.6,1.58,4.87,3.34,6.84,5.25,1.97,1.9,3.57,3.89,4.86,5.91,1.28,2.02,2.06,3.98,2.41,5.84.19,1.04.24,2.2.14,3.49-.1,1.29-.37,2.35-.82,3.18,1,1.58,1.32,2.9,1.03,3.91ZM605.3,462.71c.37-.48.89-.98,1.56-1.51.66-.53.9-1.18.71-1.97-.21-.86-.84-1.95-1.96-3.22-1.12-1.28-2.39-2.5-3.82-3.64-1.44-1.15-2.91-2.18-4.42-3.11-1.51-.92-2.73-1.58-3.64-1.99-1.5-.67-3.29-1.34-5.41-1.97-2.12-.63-4.2-1.04-6.22-1.24-2.02-.2-3.77-.07-5.22.34-1.45.41-2.25,1.27-2.37,2.55-.05.78.43,1.79,1.42,3.03.99,1.24,2.37,2.55,4.09,3.97,1.73,1.42,3.81,2.91,6.2,4.53,2.39,1.62,4.91,3.17,7.51,4.68,2.91,1.68,5.57,2.89,8.04,3.54,2.46.66,3.91.33,4.53-1.12-.52-.73-.84-1.34-.97-1.84-.12-.5-.14-.85-.05-1.04Z"/>
      <path class="cls-5" d="M618.55,520.15c-.35,1.69-.88,2.58-1.67,2.68-.79.1-1.75-.38-2.98-1.39-1.23-1.01-2.64-2.4-4.3-4.12-1.67-1.72-3.43-3.59-5.26-5.6-2.08-2.41-4.36-4.87-6.83-7.38-2.47-2.51-4.92-4.89-7.27-7.21-2.35-2.32-4.51-4.57-6.42-6.81-1.91-2.24-3.32-4.4-4.16-6.57-1.02-2.61-.93-4.55.3-5.85,1.21-1.29,3.14-2.06,5.68-2.19,2.54-.13,5.54.31,8.84,1.47,3.3,1.16,6.53,2.84,9.58,5.1,2.24,1.63,4.32,3.53,6.23,5.69,1.9,2.16,3.47,4.47,4.76,6.88,1.29,2.41,2.25,4.85,2.97,7.27.71,2.42,1.06,4.68,1.14,6.72.04,1.14-.02,2.39-.18,3.73-.16,1.34-.41,2.4-.75,3.17.5,1.92.57,3.4.32,4.4ZM613.35,508.06c.29-.42.68-.83,1.17-1.24.49-.41.69-1.05.61-1.92-.09-.95-.46-2.24-1.18-3.81-.72-1.58-1.57-3.13-2.57-4.62-1-1.49-2.06-2.87-3.18-4.13-1.12-1.26-2.05-2.18-2.74-2.79-1.15-.99-2.56-2.02-4.25-3.08-1.7-1.05-3.41-1.85-5.1-2.43-1.69-.58-3.19-.76-4.44-.6-1.26.16-1.97.9-2.11,2.2-.06.8.33,1.91,1.14,3.37.81,1.46,1.95,3.06,3.36,4.84,1.41,1.79,3.09,3.72,4.97,5.86,1.88,2.14,3.82,4.26,5.76,6.36,2.17,2.35,4.09,4.17,5.83,5.4,1.73,1.23,2.73,1.21,3.25-.18-.31-.88-.5-1.6-.56-2.14-.06-.55-.05-.92.03-1.11Z"/>
      <path class="cls-5" d="M617.09,546.9c-.34-1.24-.82-2.69-1.53-4.33-.71-1.64-1.57-3.29-2.61-4.93-1.04-1.64-2.2-3.18-3.46-4.61-1.27-1.44-2.55-2.69-3.8-3.79,1.45,2.24,3.12,5.08,4.74,8.65,1.61,3.57,2.86,7.29,3.76,11.13.9,3.84,1.36,7.51,1.58,10.93.2,3.42.11,5.86,0,7.21-.14,1.44-.3,2.06-.53,1.86-.23-.2-.5-.85-.89-1.91-.39-1.07-.88-2.35-1.53-3.81-.65-1.47-1.34-2.74-1.99-3.84.46,1.38.94,3.03,1.38,4.97.44,1.94.81,4.02,1.08,6.23.27,2.21.43,4.54.48,6.98.05,2.44-.04,4.81-.19,7.1-.18,2.56-.46,4.9-.74,6.97-.28,2.07-.5,3.46-.61,4.12-.14.86-.27,1.6-.39,2.22-.12.62-.21,1.08-.29,1.38-.08.3-.12.34-.16.14-.03-.21-.05-.64-.07-1.31-.03-1.43-.14-3.34-.46-5.65-.32-2.32-.83-4.6-1.49-6.85-.66-2.26-1.43-4.24-2.2-5.99-.78-1.76-1.42-2.91-1.79-3.55-.54-1.04-1-1.91-1.31-2.66-.32-.74-.61-1.59-.87-2.53-.33-1.26-.5-2.14-.48-2.67.01-.53.13-.81.35-.84.22-.04.48.07.78.31.3.24.56.51.79.81,1.07,1.5,2.05,3.08,2.93,4.74.88,1.66,1.6,3.31,2.2,4.92.6,1.61,1.05,3.08,1.4,4.37.35,1.29.59,2.4.77,3.27.05.19.12.4.2.61.08.21.16.35.23.43.08.07.14.08.2,0,.06-.07.1-.15.12-.24.09-.91.19-2.78.11-5.49-.09-2.72-.34-5.68-.89-8.82-.55-3.14-1.35-6.22-2.42-9.21-1.08-2.99-2.21-5.32-3.22-7.11-1.28-1.9-2.4-3.63-3.22-5.25-.83-1.62-1.34-2.83-1.46-3.68-.13-.85,0-1.48.39-1.89.38-.42.89-.42,1.5,0,.88.59,1.84,1.3,2.84,2.14,1,.84,1.95,1.74,2.85,2.69.9.95,1.7,1.9,2.41,2.85.71.94,1.28,1.78,1.75,2.49-.55-2.75-1.3-5.55-2.3-8.4-1.01-2.84-2.21-5.59-3.6-8.22-1.4-2.63-2.95-5.09-4.62-7.4-1.68-2.3-3.31-4.28-4.8-5.98-.93-1.11-1.8-2.16-2.61-3.16-.81-1-1.32-1.88-1.52-2.66-.14-.57,0-.99.45-1.27.45-.28,1.04-.44,1.77-.46.73-.03,1.58.09,2.53.35.95.26,1.91.67,2.86,1.23,2.93,1.81,5.9,4.16,8.6,7.17,2.69,3.01,4.8,6.24,6.35,9.6.54,1.23.97,2.66,1.3,4.3.33,1.64.47,3.37.47,5.19-.04,1.74-.15,2.67-.33,2.78-.18.12-.4-.46-.77-1.69Z"/>
    </g>
    <g>
      <path class="cls-5" d="M474.49,547.26l-7,10c-1.12,1.6-2.25,3.2-3.36,4.8-.99,1.42-1.99,3.11-1.16,4.85.63,1.33,1.93,1.86,3.18,2.47s2.49,1.44,3.53,2.43c2,1.9,3.47,4.32,4.45,6.89,5.01,13.12-1.72,27.88,4.37,40.73,1.45,3.07,3.82,5.33,7.09,6.34,3.68,1.14,7.67,1.61,11.47,2.28,7.99,1.39,16.03,2.53,24.1,3.43,8.1.9,16.22,1.54,24.36,1.92,4.07.19,8.14.32,12.21.38,3.58.05,7.2.19,10.78-.07,5.03-.37,11.35-1.67,13.87-6.62,3.16-6.19-1.59-12.01-4.98-16.88-3.62-5.21-5.32-10.93-5.41-17.26s1.12-12.78,2.22-19.08,2.27-12.94,2.17-19.49c-.1-6.19-1.49-12.2-4.39-17.68-5.71-10.78-16.31-18.73-27.92-22.14-13.9-4.08-29.04-2.15-42.25,3.4-3,1.26-6.6,2.56-8.8,5.08s-2.12,6.06-2.85,9.24c-1.36,5.92-4.86,11.22-9.58,15-2.28,1.83-4.89,3.28-7.63,4.27-1.8.65-1.03,3.55.8,2.89,5.59-2.01,10.44-5.58,14.04-10.29,1.77-2.32,3.19-4.88,4.23-7.61,1.1-2.9,1.26-5.86,1.98-8.83.84-3.46,4.04-4.76,7-6.12,3.17-1.45,6.46-2.66,9.81-3.62,6.67-1.92,13.63-2.85,20.57-2.5,12.42.63,24.37,5.77,32.71,15.12,3.8,4.27,6.71,9.37,8.16,14.91,1.56,5.94,1.31,12.17.57,18.21-1.48,11.97-5.49,24.23-3.1,36.36.55,2.82,1.52,5.55,2.86,8.09,1.47,2.78,3.5,5.21,5.21,7.85,1.53,2.35,3.15,5.19,2.52,8.11-.52,2.42-2.36,4.05-4.54,5.03-2.36,1.06-5.02,1.45-7.59,1.61-3.47.22-6.97.1-10.45.05-7.82-.12-15.64-.47-23.44-1.07s-15.63-1.43-23.41-2.51-15.35-2.22-22.89-3.9c-1.46-.33-2.95-.74-4.15-1.67-1.33-1.03-2.25-2.54-2.91-4.06-1.43-3.27-1.92-6.93-2.07-10.47-.28-6.88.87-13.79.11-20.66-.61-5.48-2.23-11-5.81-15.3-1.78-2.14-3.96-3.56-6.43-4.78-.44-.22-1.01-.4-1.06-.94-.06-.66.99-1.75,1.34-2.24l3.5-5c2.19-3.13,4.39-6.26,6.58-9.4,1.11-1.58-1.49-3.09-2.59-1.51h0Z"/>
      <path class="cls-5" d="M511.27,547.73c-1.49,2.83-1.46,6.12-.07,8.99.62,1.28,1.56,2.42,2.68,3.3,1.23.95,3.3,1.41,4.12,2.78.92,1.53.36,4.13.26,5.8-.13,2.18-.3,4.35-.52,6.52-.46,4.53-1.13,9.03-1.98,13.5-.36,1.89,2.53,2.69,2.89.8.81-4.26,1.46-8.54,1.93-12.85.24-2.17.43-4.34.58-6.51.14-2.01.4-4.12.2-6.13-.17-1.73-.87-3.21-2.29-4.26-1.31-.97-2.91-1.43-4.06-2.63-1.95-2.03-2.48-5.29-1.16-7.79.9-1.71-1.69-3.22-2.59-1.51h0Z"/>
      <path class="cls-5" d="M537.77,584.27c1.85-3.32,6.12-4.31,9.61-3.35,4.11,1.13,6.54,5.17,6.84,9.26.17,2.27-.22,4.49-1.09,6.59-.98,2.36-2.29,4.59-2.68,7.16-.63,4.19,1.29,8.02,4.26,10.89,3.53,3.41,8.08,5.62,12.59,7.43,1.79.72,2.57-2.18.8-2.89-4.15-1.67-8.44-3.78-11.61-7.01-1.38-1.41-2.52-3.06-2.97-5-.59-2.48.28-4.83,1.31-7.07s2.03-4.57,2.33-7.13c.27-2.25.06-4.61-.65-6.77-1.4-4.25-4.75-7.71-9.23-8.56s-9.73.7-12.09,4.94c-.94,1.69,1.65,3.2,2.59,1.51h0Z"/>
    </g>
    <g>
      <path class="cls-5" d="M766.66,611.69c1.68-8.27,2.69-16.68,2.97-25.11.14-4.18.1-8.37-.11-12.54-.11-2.09-.26-4.17-.46-6.25-.18-1.92-.19-4.1-.91-5.91-1.24-3.1-4.49-3.59-7.45-3.31-3.19.3-6.07.62-9.18-.38-6.25-2-11.08-7.32-14.7-12.56-7.1-10.26-12.8-24.05-26.63-26.34-14.67-2.43-27.34,7.77-37.11,17.33-5.29,5.17-10.46,10.6-16.66,14.71s-13.68,6.87-20.03,11.16c-5.5,3.72-10.67,9.19-12.01,15.91-1.21,6.06,1.19,11.57,5.03,16.15s8.58,8.11,12.32,12.69,5.32,10.69,7.59,16.3c1.15,2.84,2.51,5.57,4.53,7.89,2.23,2.56,5.19,4.23,8.39,5.26,3.54,1.13,7.32,1.6,11,1.92,3.92.34,7.87.37,11.79.09,7.78-.55,15.49-2.25,22.76-5.1s13.22-6.61,19.82-9.96c3.28-1.66,6.65-3.17,10.19-4.18s7.37-1.39,11.18-1.19c7.09.36,14.66,1.64,20.92-2.62,2.39-1.63,4.24-3.87,5-6.7.5-1.87-2.39-2.66-2.89-.8-1.63,6.09-9,7.72-14.45,7.64-3.98-.06-7.94-.69-11.93-.59-3.47.09-6.91.76-10.21,1.84-6.66,2.19-12.7,5.82-18.85,9.11-6.51,3.49-13.26,6.26-20.48,7.9s-14.77,2.19-22.2,1.61c-6.52-.51-14.16-1.43-18.45-6.97-3.58-4.63-4.75-10.69-7.01-15.98s-6.06-9.49-10.22-13.48c-3.8-3.64-8.22-7.39-10.2-12.42-2.34-5.95-.06-12.07,4.02-16.65,4.82-5.42,11.5-8.46,17.84-11.69,3.25-1.66,6.46-3.4,9.44-5.52s5.54-4.31,8.11-6.69c10.02-9.29,19.26-20.76,33.31-23.76,6.31-1.35,12.74-.23,17.91,3.72,4.89,3.73,8.23,9.13,11.4,14.3,6.09,9.92,14.67,22.7,28.07,21.33,2.15-.22,6.44-1.44,7.35,1.39.57,1.78.55,3.88.71,5.74.17,2,.3,4.01.39,6.01.36,8.04.06,16.11-.89,24.11-.47,3.95-1.12,7.89-1.91,11.79-.38,1.88,2.51,2.69,2.89.8h0Z"/>
      <path class="cls-5" d="M742.68,599.5c1.1-6.69-3.96-13.27-10.68-14.12-4-.5-7.68,1.98-11.63,1.44-3.14-.43-5.65-2.74-7.38-5.27-3.91-5.73-4.4-12.88-7.49-19-1.52-3.02-3.78-5.74-6.8-7.35-3.29-1.74-7.11-2.13-10.77-1.73-9.36,1.02-17.56,7.12-27.06,7.08-1.93,0-1.93,2.99,0,3,8.23.03,15.31-4.36,23.08-6.33,3.42-.87,7.11-1.32,10.57-.44s5.89,2.98,7.63,5.88c3.36,5.6,3.84,12.37,6.89,18.12,1.48,2.78,3.48,5.4,6.13,7.15,2.81,1.86,6.04,2.26,9.3,1.58,2.15-.45,4.28-1.31,6.51-1.23,1.68.06,3.28.68,4.67,1.61,2.79,1.89,4.71,5.38,4.15,8.79-.31,1.89,2.58,2.7,2.89.8h0Z"/>
      <path class="cls-5" d="M661.55,569.08c-.13,8.9,5.17,17.43,12.99,21.58,2.01,1.07,4.17,1.84,6.41,2.28s4.63.65,6.86,1.33c4.14,1.26,5.72,4.73,7.29,8.43s3.32,7.43,7.42,8.62c1.86.54,2.65-2.35.8-2.89-3.15-.92-4.41-4.37-5.57-7.11-1.39-3.27-2.89-6.66-6.04-8.61-3.89-2.39-8.72-2.01-12.94-3.46-3.9-1.35-7.36-3.97-9.85-7.24-2.84-3.71-4.44-8.26-4.37-12.94.03-1.93-2.97-1.93-3,0h0Z"/>
    </g>
    <g>
      <path class="cls-5" d="M368.44,546.2c-9.71,5.1-17.38,14.1-20.48,24.67-.91,3.09-1.38,6.38-.99,9.59s1.52,5.9,3.02,8.56c2.8,4.94,6.35,9.62,9.86,14.07s7.09,8.22,11.55,11.32c2.26,1.57,4.7,2.86,7.27,3.83,3,1.13,6.21,1.65,9.16,2.94s5.2,3.21,7.55,5.15c2.2,1.81,4.44,3.54,6.91,4.99,4.75,2.78,10.29,4.81,15.87,4.54,2.76-.13,5.47-.84,7.9-2.16,2.62-1.42,4.83-3.5,6.9-5.62,4.82-4.92,9.59-9.89,14.38-14.84,2.48-2.56,4.96-5.12,7.44-7.67,2.13-2.2,4.31-4.36,6.21-6.77,3.23-4.08,5.58-8.94,4.53-14.25-.92-4.65-4.34-8.37-9.16-8.84-2.77-.27-6.13.57-8.15-1.86-1.62-1.95-2.29-4.77-3.01-7.15-3-9.96-4.21-21.07-11.18-29.29s-18.5-10.45-28.88-11.81c-6.11-.8-12.19-1.57-18.21-2.9s-12.48-3.21-18.52-5.45c-3.04-1.13-6.03-2.36-8.98-3.7-.95-.43-1.82-.07-2.2.9-2.49,6.33-2.56,13.52-.4,19.96,1.08,3.24,2.69,6.27,4.79,8.97,1.05,1.35,2.23,2.53,3.45,3.71.97.95,2.24,2.26,1.68,3.74-1,2.67-5.36,3.6-7.81,3.9-1.89.23-1.92,3.23,0,3,3.13-.37,6.46-1.25,8.87-3.39,2.58-2.28,2.58-5.67.43-8.26-1.17-1.41-2.62-2.55-3.8-3.96s-2.14-2.88-2.98-4.46c-1.7-3.18-2.76-6.75-3.08-10.34-.36-4.13.22-8.23,1.74-12.08l-2.2.9c11.29,5.13,23.21,8.82,35.45,10.85,10.28,1.71,21.55,1.68,30.99,6.59,4.5,2.34,8.03,5.85,10.47,10.29s3.73,9.28,4.96,14.11,2.3,9.82,4.23,14.46c1.02,2.45,2.53,4.7,5.13,5.63s5.37.17,8.01.78c4.15.95,6.01,5.71,5.59,9.59-.58,5.38-4.98,9.71-8.54,13.39-4.61,4.76-9.22,9.52-13.83,14.27-2.31,2.38-4.61,4.76-6.92,7.14-2.11,2.17-4.16,4.49-6.58,6.33-9.38,7.14-21.32,1.26-29.22-5.25-2.27-1.87-4.53-3.8-7.14-5.18s-5.53-2.09-8.37-2.93c-5.08-1.5-9.52-4.2-13.4-7.79s-7.2-7.86-10.31-12.18-6.94-9.05-8.23-14.46c-1.37-5.75.75-12.02,3.48-17.06,2.44-4.52,5.78-8.5,9.76-11.74,2-1.63,4.19-3.02,6.47-4.22,1.71-.9.2-3.49-1.51-2.59h0Z"/>
      <path class="cls-5" d="M395.66,549.49c-6.05,4.55.26,12.14,1.65,17.43,1.57,5.96.37,12.27,1.79,18.26.77,3.28,2.5,6.06,5.32,7.95,1.61,1.08,3.11-1.52,1.51-2.59-4.45-2.98-4.51-8.87-4.66-13.68-.09-2.85-.16-5.71-.61-8.53s-1.58-5.34-2.75-7.94c-.97-2.14-3.26-6.42-.74-8.32,1.52-1.15.03-3.75-1.51-2.59h0Z"/>
      <path class="cls-5" d="M414.08,591.66c4.22,3.97,4.98,11.02,1.35,15.65-1.92,2.44-4.79,4.43-5.18,7.74-.31,2.6,1.02,5.65,3.84,6.1,1.89.31,2.7-2.58.8-2.89-1.13-.18-1.6-1.08-1.68-2.16-.12-1.42.73-2.63,1.62-3.66,2.01-2.33,4.06-4.27,5.12-7.24,1.91-5.37.42-11.75-3.73-15.65-1.4-1.32-3.53.79-2.12,2.12h0Z"/>
    </g>
    <g>
      <path class="cls-5" d="M452.38,120.66c.39-7.22.46-17.11-6.22-21.72-4.04-2.78-9.23-1.72-13.71-3.16s-8.06-4.45-11.27-7.67-5.94-7.5-10.09-9.42-8.17-.7-11.37,2.09-5.27,6.77-6.32,10.76c-.94,3.57-.47,9.34-4.97,10.48-2.2.56-4.52.59-6.73,1.16s-4.3,1.35-6.34,2.31c-4.12,1.92-7.89,4.61-11.15,7.77s-5.99,6.8-8,10.82c-1.63,3.26-4.94,9.7-.93,12.43,1.64,1.11,3.81.92,5.42,2.04,1.69,1.18,2.52,3.36,3.46,5.12,2.13,3.97,5.57,6.89,9.91,8.17,2.17.64,4.5.85,6.75.61,2.68-.29,5.21-1.26,7.88-1.62,5.01-.68,8.9,2.99,13.6,3.91,10.03,1.95,19.12-5.69,25.94-11.99,3.76-3.47,7.46-7.09,11.81-9.83,4.12-2.59,9.59-3.56,12.76-7.48,1.49-1.83,2.29-3.92,1.95-6.28-.12-.81-1.13-1.24-1.85-1.05-.86.23-1.16,1.05-1.05,1.85.3,2.12-1.63,4.19-3.23,5.28-1.99,1.35-4.3,2.12-6.47,3.12-4.29,1.98-8.02,4.98-11.51,8.1-6.77,6.05-13.75,14.05-23.25,15.44-2.09.31-4.18.12-6.18-.56-2.1-.72-4.04-1.83-6.11-2.62-2.19-.83-4.43-1.15-6.76-.84-2.54.34-4.97,1.28-7.52,1.58-4.14.48-8.49-.78-11.5-3.72-2.81-2.74-3.51-7.05-6.69-9.46-1.6-1.21-3.46-1.22-5.22-2-2.04-.9-.55-3.96,0-5.47,1.42-3.89,3.65-7.52,6.34-10.66,5.42-6.34,12.89-11.16,21.19-12.58,2.23-.38,4.6-.33,6.57-1.6,1.62-1.04,2.64-2.66,3.27-4.44s.82-3.78,1.17-5.69.99-3.82,1.87-5.57c1.59-3.15,4.13-6.49,7.74-7.35,4.35-1.03,7.46,2.82,10.04,5.67,2.93,3.24,5.99,6.4,9.6,8.89,3.81,2.62,7.93,3.89,12.5,4.26,2.16.18,4.4.31,6.31,1.42,1.38.8,2.43,1.99,3.21,3.38,1.74,3.1,2.14,6.86,2.25,10.36.06,1.93,0,3.86-.1,5.78s2.9,1.92,3,0h0Z"/>
      <path class="cls-5" d="M425.79,111.7c-2.03,2.94-4.8,7.06-8.72,7.42-1.82.17-3.51-.65-5.1-1.41s-3.35-1.57-5.21-1.81-3.62.52-5.29,1.42c-1.93,1.04-3.76,2.28-5.53,3.57s-3.37,2.52-4.95,3.9c-.82.71-2.26,1.73-2.26,2.95-.01,2.53,2.79,1.24,3.9.56.87-.53,1.83-1.06,2.62-1.71.24-.19,0,0-.01-.01l-.16.02c-.45.1-.73-.19-.85-.87l-.69-.89c.13-.28.16-.36.1-.24.06.06-.23.34-.26.37-1.5,1.74-3.28,3.3-5.14,4.64-1.07.78-2.19,1.53-3.39,2.08-.46.21-.93.38-1.43.49-.28.06-.63.07-.85,0-1.87-.49-2.67,2.4-.8,2.89,2.12.56,4.36-.56,6.13-1.63,2.16-1.31,4.16-2.94,5.99-4.68.93-.89,2.97-2.49,2.54-4-.77-2.74-4.13.21-5.24.9-.31.19-.62.37-.93.55-.11.06-.24.1-.34.17.13-.09.19.04.05-.04l.17-.02c.74-.15,1.28.32,1.6,1.42,0-.11-.23.89-.16.64.07-.23-.13.13-.09.1.19-.14.36-.39.53-.56,1.25-1.24,2.66-2.34,4.06-3.4,1.84-1.4,3.74-2.75,5.73-3.93.81-.48,1.82-1.04,2.58-1.36.15-.06.62-.23.9-.31.15-.04.31-.08.47-.11-.4.06.16.01.29.02,2.12.15,3.97,1.3,5.87,2.13,2.02.88,4.07,1.41,6.28,1.01,4.6-.83,7.73-5.18,10.2-8.76,1.1-1.59-1.5-3.09-2.59-1.51h0Z"/>
    </g>
    <g>
      <path class="cls-5" d="M386.23,411.2c-6.07,4.25-12.34,8.67-16.43,14.99-3.58,5.53-5.02,12.93-2.38,19.14,2.42,5.68,7.89,8.39,13.29,10.62,4.67,1.94,10.65,3.83,12.86,8.87,1.6,3.65.58,7.77-.52,11.4-1.01,3.31-2.26,6.52-2.64,9.98-.62,5.62,1.08,12.26,7.12,14.07,1.85.56,3.83.55,5.75.46,2.18-.09,4.36-.25,6.54-.43,4.38-.36,8.74-.86,13.1-1.33,8.78-.95,17.62-1.83,26.46-1.43,8.7.39,17.29,1.73,25.92-.14,4.15-.9,8.17-2.31,12.18-3.71,4.3-1.5,8.6-3.01,12.9-4.51s8.44-2.95,12.67-4.43c3.26-1.14,6.92-2.21,9.04-5.14,1.98-2.74,1.7-6.29.33-9.23-1.51-3.25-4.38-5.47-7.37-7.28s-5.95-3.27-8.56-5.46c-2.17-1.82-4.1-3.92-5.77-6.21-3.37-4.63-5.81-9.86-7.99-15.13-4.43-10.74-8.02-22.36-16.03-31.1-9.83-10.74-24.94-13.61-38.91-13.13-8.46.29-16.91,1.72-24.99,4.25-6.78,2.12-13.67,4.92-19.01,9.74-2.42,2.19-4.43,4.83-5.7,7.84-.32.75-.22,1.6.54,2.05.63.37,1.74.21,2.05-.54,2.58-6.09,8.06-10.01,13.87-12.76,6.96-3.3,14.65-5.33,22.24-6.54,13.82-2.2,30-1.99,42,6.15,9.49,6.43,14.11,17.41,18.18,27.67,4.01,10.09,7.88,20.94,15.98,28.57,2.22,2.09,4.71,3.8,7.34,5.31,2.92,1.68,6.23,3.28,8.31,6.02,1.76,2.33,2.88,5.9.77,8.38-1.05,1.24-2.61,1.98-4.1,2.56-1.85.72-3.74,1.33-5.61,1.99-8.04,2.81-16.07,5.63-24.11,8.43-3.85,1.34-7.74,2.66-11.74,3.46s-8.17.9-12.29.7-8.41-.67-12.63-.84-8.43-.05-12.63.22c-8.35.54-16.65,1.69-24.99,2.44-2.1.19-4.21.35-6.32.47-1.84.1-3.76.29-5.59-.03-2.79-.48-4.71-2.36-5.52-5.03-1.91-6.25,1.37-12.2,2.81-18.14.86-3.56,1.15-7.31-.32-10.75-1.04-2.43-2.83-4.36-4.97-5.88-4.34-3.09-9.69-4.33-14.35-6.85-2.38-1.28-4.6-2.91-6.03-5.25-1.59-2.61-2.09-5.68-1.86-8.7.52-6.9,4.99-12.46,10.05-16.81,2.71-2.33,5.64-4.39,8.57-6.43,1.57-1.1.07-3.7-1.51-2.59h0Z"/>
      <path class="cls-5" d="M403.94,417.02c-3.8,5.09.58,11.48,4.12,15.32,2.02,2.19,4.22,4.41,7.02,5.55,1.38.56,2.74.61,4.18.88,1.36.26,1.86.92,2.22,2.21.6,2.16.8,4.61,2.93,5.88,1.26.75,2.73.71,4.13.53,1.29-.17,2.69-.49,3.89.2,1.75,1.01,2.32,3.45,2.69,5.27.54,2.64.65,5.35,1.25,7.99,1.57,6.85,5.18,13.16,10.15,18.1,1.37,1.36,3.49-.76,2.12-2.12-4.24-4.21-7.37-9.45-8.98-15.21-.73-2.63-.97-5.29-1.37-7.98-.33-2.2-.84-4.55-2.1-6.42s-3.29-3.08-5.65-3.04c-1.29.02-2.68.57-3.96.34-1.19-.22-1.49-1.29-1.75-2.32-.53-2.14-.89-4.48-2.99-5.68-1.15-.66-2.46-.69-3.74-.88-1.51-.22-2.82-.84-4.05-1.73-2.53-1.85-4.89-4.48-6.59-7.11s-2.92-5.59-.94-8.24c1.16-1.55-1.45-3.04-2.59-1.51h0Z"/>
      <path class="cls-5" d="M484.63,467.77c.36-10.63.51-21.27.44-31.91-.02-2.64-.04-5.28-.08-7.92-.03-1.88-.04-3.91-1.04-5.58-1.12-1.89-3.11-2.42-5.17-2.58-1.92-.16-3.75-.51-5.48-1.39-3.81-1.92-6.63-5.41-7.42-9.62-.36-1.89-3.25-1.09-2.89.8.7,3.68,2.8,7.02,5.7,9.37,1.49,1.21,3.12,2.15,4.91,2.83s3.68.82,5.6,1.04c.93.11,1.78.33,2.25,1.2.43.8.49,1.79.52,2.68.09,2.47.08,4.96.1,7.43.04,5.28.03,10.56-.03,15.83-.07,5.94-.21,11.87-.4,17.81-.06,1.93,2.94,1.93,3,0h0Z"/>
    </g>
    <path class="cls-6" d="M273.89,302.7c-3.4,34.34-6.8,68.69-10.2,103.03s-6.77,68.34-10.15,102.51c-1.9,19.18-3.8,38.35-5.7,57.53-.23,2.35,2.24,4.6,4.5,4.5,2.64-.12,4.25-1.98,4.5-4.5,3.4-34.34,6.8-68.69,10.2-103.03l10.15-102.51c1.9-19.18,3.8-38.35,5.7-57.53.23-2.35-2.24-4.6-4.5-4.5-2.64.12-4.25,1.98-4.5,4.5h0Z"/>
    <path class="cls-6" d="M194.79,298.24c0,34.47,0,68.93,0,103.4s0,68.58,0,102.87c0,19.34,0,38.69,0,58.03,0,2.35,2.07,4.61,4.5,4.5s4.5-1.98,4.5-4.5c0-34.47,0-68.93,0-103.4s0-68.58,0-102.87c0-19.34,0-38.69,0-58.03,0-2.35-2.07-4.61-4.5-4.5s-4.5,1.98-4.5,4.5h0Z"/>
    <path class="cls-6" d="M119.28,302.81c3.4,34.34,6.8,68.69,10.2,103.03,3.38,34.17,6.77,68.34,10.15,102.51,1.9,19.18,3.8,38.35,5.7,57.53.23,2.34,1.9,4.62,4.5,4.5,2.24-.1,4.75-1.99,4.5-4.5-3.4-34.34-6.8-68.69-10.2-103.03s-6.77-68.34-10.15-102.51c-1.9-19.18-3.8-38.35-5.7-57.53-.23-2.34-1.9-4.62-4.5-4.5-2.24.1-4.75,1.99-4.5,4.5h0Z"/>
    <text class="cls-4" transform="translate(364.09 217.63) rotate(28.31) scale(1.2 1)"><tspan x="0" y="0">in</tspan></text>
  </g>
</svg>