<?xml version="1.0" encoding="UTF-8"?>
<svg id="Layer_2" data-name="Layer 2" xmlns="http://www.w3.org/2000/svg" viewBox="0 0 1200.3 360.29">
  <defs>
    <style>
      .cls-1 {
        stroke: #000;
      }

      .cls-1, .cls-2, .cls-3 {
        stroke-miterlimit: 10;
        stroke-width: 9px;
      }

      .cls-1, .cls-3 {
        fill: #8b8b94;
      }

      .cls-2 {
        fill: none;
      }

      .cls-2, .cls-3 {
        stroke: #040000;
      }

      .cls-4 {
        font-family: NanumPen, 'Nanum Pen Script';
        font-size: 89.61px;
      }

      .cls-4, .cls-5 {
        fill: #000;
      }

      .cls-5, .cls-6, .cls-7 {
        stroke-width: 0px;
      }

      .cls-6 {
        fill: #040000;
      }

      .cls-7 {
        fill: #fff;
      }
    </style>
  </defs>
  <g id="Layer_1-2" data-name="Layer 1">
    <g>
      <g>
        <path class="cls-7" d="M802.79,322.39c1.65-1.64,2.35-4.24,1.73-6.44s-2.53-3.9-4.73-4.21c-1.57-.22-3.18.21-4.77.22-1.95.01-3.83-.6-5.67-1.21-4.96-1.65-10.02-3.34-14.17-6.53-.42-.32-.87-.68-1.41-.67-.45,0-.88.27-1.26.54-3.16,2.25-5.43,5.84-6.13,9.69-.61,3.32-.1,6.77-1.01,10.03-.88,3.13-3.03,5.9-3.37,9.12-.39,3.62,1.89,7.23,5.2,8.22,2.89.87,6.07-.11,9.07.29,4.43.6,8.42,4.2,12.83,3.08,2.56-.65,4.59-2.79,6.09-5.09,1.49-2.3,2.61-4.84,4.26-7.02,1.08-1.42,2.37-2.68,3.23-4.25.85-1.57,1.17-3.61.21-5.02"/>
        <path class="cls-5" d="M803.85,323.45c3.07-3.24,3.31-8.65-.31-11.6-1.96-1.6-4.16-1.78-6.6-1.54-1.43.14-2.76.2-4.17-.12-1.3-.29-2.57-.74-3.83-1.17-2.5-.83-5-1.68-7.4-2.79-1.05-.49-2.08-1.02-3.07-1.61-1.09-.65-2.07-1.55-3.18-2.16-2.23-1.23-4.41.81-5.88,2.34-1.64,1.7-2.88,3.73-3.72,5.93-1.85,4.86-.46,10.19-2.62,14.98-1,2.21-2.19,4.37-2.51,6.81-.28,2.11.17,4.28,1.28,6.1s2.69,3.18,4.65,3.86c2.47.86,5.09.41,7.63.36,4.71-.1,8.48,3.32,13.13,3.39,5.84.09,8.92-5.36,11.43-9.78.71-1.26,1.45-2.49,2.36-3.62.85-1.06,1.78-2.06,2.53-3.2,1.39-2.14,2.01-4.95.63-7.24-.99-1.65-3.59-.15-2.59,1.51,1.06,1.77-.27,3.83-1.37,5.23-1.31,1.66-2.64,3.22-3.71,5.06-1.89,3.22-3.77,7.89-7.8,8.89-3.65.91-7.31-1.94-10.72-2.82-2.08-.54-4.17-.41-6.29-.29-1.98.11-4.05.14-5.71-1.1-1.37-1.02-2.28-2.67-2.49-4.35-.24-1.9.5-3.74,1.28-5.43.87-1.88,1.83-3.74,2.25-5.78.46-2.24.42-4.52.55-6.79.24-4.14,1.85-7.96,5.07-10.66.28-.24.69-.66,1.05-.75.2-.05.39.17.72.4.94.68,1.88,1.34,2.89,1.92,1.81,1.04,3.72,1.89,5.66,2.65,2.31.91,4.67,1.71,7.04,2.45,2.51.79,4.78.97,7.39.72,2.23-.21,4.39.22,5.42,2.44.88,1.89.27,4.16-1.11,5.63s.79,3.53,2.12,2.12h0Z"/>
      </g>
      <g>
        <path class="cls-7" d="M797.18,319.84c-1.28-.63-2.57-1.27-3.85-1.9-.29-.14-.6-.29-.92-.23-.44.08-.74.5-1.07.81-1.5,1.41-3.79.79-5.61.08-1.69-.65-3.39-1.31-5.08-1.96-1.7-.66-3.84-1.23-5.22.1-.7.67-1.21,1.82-2.14,1.81"/>
        <path class="cls-5" d="M797.94,318.54c-1.28-.63-2.55-1.3-3.85-1.9-1.05-.49-2.02-.62-3.01.09-.93.66-1.34,1.26-2.6,1.11-1.18-.14-2.32-.67-3.41-1.09-2.24-.86-4.56-2.08-6.98-2.29-1.04-.09-2.12.1-3.01.66-.43.27-.79.62-1.12,1-.13.16-.25.33-.39.48-.05.06-.53.47-.29.44-1.89.22-1.92,3.22,0,3,.97-.11,1.66-.48,2.32-1.21s.96-1.37,1.97-1.41,1.99.39,2.88.73c1.27.49,2.54.98,3.81,1.47,1.93.75,4.03,1.6,6.13,1.05.45-.12.89-.31,1.28-.55.1-.06,1.01-.93.89-.9.32-.07,1.39.69,1.71.84l2.14,1.06c1.73.85,3.25-1.73,1.51-2.59h0Z"/>
      </g>
      <g>
        <path class="cls-7" d="M772.75,330.29c-.29-.6.16-1.39.77-1.68s1.3-.22,1.95-.13c1.18.16,2.36.36,3.52.59,1.08.22,2.19.47,3.11,1.08,2.37,1.56,2.89,4.87,3.2,7.81.88-.49,2.03-.33,2.71.38"/>
        <path class="cls-5" d="M774.19,329.89s-.11.08-.07.09c.11.03.58-.08.73-.07.81.05,1.63.22,2.43.36,1.38.24,3.1.4,4.24,1.3,1.81,1.42,2.06,4.29,2.28,6.39.12,1.16,1.17,1.83,2.26,1.3.31-.15.66-.08.89.14,1.41,1.32,3.54-.8,2.12-2.12-1.28-1.19-2.98-1.37-4.53-.61l2.26,1.3c-.39-3.62-1.1-7.93-4.84-9.57-2.06-.9-4.52-1.2-6.74-1.44-1.05-.11-2.12.02-2.96.71s-1.36,1.93-.97,3.03c.27.76,1.02,1.27,1.85,1.05.74-.2,1.32-1.08,1.05-1.85h0Z"/>
      </g>
    </g>
    <g>
      <path class="cls-3" d="M1193.22,322.4c-7.65,9.36-29.84-.4-163.61-35.62-130.13-34.25-154.24-36.89-154.23-48.06.02-22.95,101.85-64.83,189.82-41.68,87.94,23.14,143.5,106.41,128.03,125.36Z"/>
      <path class="cls-2" d="M1120.98,203.5c-5.63,18.97-33.15-1.05-72.25-8.41-39.1-7.35-74.96.75-69.34-18.22,5.63-18.97,41.89-28.4,80.98-21.04,39.1,7.35,66.23,28.7,60.6,47.67Z"/>
    </g>
    <g>
      <path class="cls-5" d="M377.92,152.93l-7,10c-1.12,1.6-2.25,3.2-3.36,4.8-.99,1.42-1.99,3.11-1.16,4.85.63,1.33,1.93,1.86,3.18,2.47s2.49,1.44,3.53,2.43c2,1.9,3.47,4.32,4.45,6.89,5.01,13.12-1.72,27.88,4.37,40.73,1.45,3.07,3.82,5.33,7.09,6.34,3.68,1.14,7.67,1.61,11.47,2.28,7.99,1.39,16.03,2.53,24.1,3.43,8.1.9,16.22,1.54,24.36,1.92,4.07.19,8.14.32,12.21.38,3.58.05,7.2.19,10.78-.07,5.03-.37,11.35-1.67,13.87-6.62,3.16-6.19-1.59-12.01-4.98-16.88-3.62-5.21-5.32-10.93-5.41-17.26s1.12-12.78,2.22-19.08,2.27-12.94,2.17-19.49c-.1-6.19-1.49-12.2-4.39-17.68-5.71-10.78-16.31-18.73-27.92-22.14-13.9-4.08-29.04-2.15-42.25,3.4-3,1.26-6.6,2.56-8.8,5.08s-2.12,6.06-2.85,9.24c-1.36,5.92-4.86,11.22-9.58,15-2.28,1.83-4.89,3.28-7.63,4.27-1.8.65-1.03,3.55.8,2.89,5.59-2.01,10.44-5.58,14.04-10.29,1.77-2.32,3.19-4.88,4.23-7.61,1.1-2.9,1.26-5.86,1.98-8.83.84-3.46,4.04-4.76,7-6.12,3.17-1.45,6.46-2.66,9.81-3.62,6.67-1.92,13.63-2.85,20.57-2.5,12.42.63,24.37,5.77,32.71,15.12,3.8,4.27,6.71,9.37,8.16,14.91,1.56,5.94,1.31,12.17.57,18.21-1.48,11.97-5.49,24.23-3.1,36.36.55,2.82,1.52,5.55,2.86,8.09,1.47,2.78,3.5,5.21,5.21,7.85,1.53,2.35,3.15,5.19,2.52,8.11-.52,2.42-2.36,4.05-4.54,5.03-2.36,1.06-5.02,1.45-7.59,1.61-3.47.22-6.97.1-10.45.05-7.82-.12-15.64-.47-23.44-1.07s-15.63-1.43-23.41-2.51-15.35-2.22-22.89-3.9c-1.46-.33-2.95-.74-4.15-1.67-1.33-1.03-2.25-2.54-2.91-4.06-1.43-3.27-1.92-6.93-2.07-10.47-.28-6.88.87-13.79.11-20.66-.61-5.48-2.23-11-5.81-15.3-1.78-2.14-3.96-3.56-6.43-4.78-.44-.22-1.01-.4-1.06-.94-.06-.66.99-1.75,1.34-2.24l3.5-5c2.19-3.13,4.39-6.26,6.58-9.4,1.11-1.58-1.49-3.09-2.59-1.51h0Z"/>
      <path class="cls-5" d="M414.69,153.4c-1.49,2.83-1.46,6.12-.07,8.99.62,1.28,1.56,2.42,2.68,3.3,1.23.95,3.3,1.41,4.12,2.78.92,1.53.36,4.13.26,5.8-.13,2.18-.3,4.35-.52,6.52-.46,4.53-1.13,9.03-1.98,13.5-.36,1.89,2.53,2.69,2.89.8.81-4.26,1.46-8.54,1.93-12.85.24-2.17.43-4.34.58-6.51.14-2.01.4-4.12.2-6.13-.17-1.73-.87-3.21-2.29-4.26-1.31-.97-2.91-1.43-4.06-2.63-1.95-2.03-2.48-5.29-1.16-7.79.9-1.71-1.69-3.22-2.59-1.51h0Z"/>
      <path class="cls-5" d="M441.19,189.95c1.85-3.32,6.12-4.31,9.61-3.35,4.11,1.13,6.54,5.17,6.84,9.26.17,2.27-.22,4.49-1.09,6.59-.98,2.36-2.29,4.59-2.68,7.16-.63,4.19,1.29,8.02,4.26,10.89,3.53,3.41,8.08,5.62,12.59,7.43,1.79.72,2.57-2.18.8-2.89-4.15-1.67-8.44-3.78-11.61-7.01-1.38-1.41-2.52-3.06-2.97-5-.59-2.48.28-4.83,1.31-7.07s2.03-4.57,2.33-7.13c.27-2.25.06-4.61-.65-6.77-1.4-4.25-4.75-7.71-9.23-8.56s-9.73.7-12.09,4.94c-.94,1.69,1.65,3.2,2.59,1.51h0Z"/>
    </g>
    <g>
      <g>
        <path class="cls-7" d="M545.77,232.32c1.97-10.36,2.32-21.04,1.02-31.52-.09-.73-.2-1.5-.64-2.1-1.16-1.6-3.59-1.05-5.56-.87-6.84.62-12.39-5.37-16.03-11.22-3.63-5.85-7.09-12.58-13.47-15.14-7.04-2.82-15.09.64-20.93,5.46-5.84,4.83-10.52,11.05-16.86,15.19-4.24,2.77-9.09,4.51-13.23,7.43s-7.64,7.55-7.18,12.6c.69,7.55,9.21,11.57,13.14,18.06,3.11,5.13,3.49,12.11,8.24,15.77,2.07,1.59,4.68,2.27,7.25,2.72,9.72,1.67,19.93.29,28.85-3.89,7.17-3.36,13.88-8.57,21.79-8.94,3.59-.17,7.18.7,10.77.41,3.58-.29,7.45-2.24,8.27-5.75"/>
        <path class="cls-5" d="M547.21,232.72c1.06-5.63,1.69-11.34,1.82-17.08.06-2.8.01-5.6-.16-8.39-.15-2.57-.15-5.46-.84-7.95-.61-2.21-2.52-3.21-4.71-3.21s-4.14.52-6.29-.07c-4.23-1.18-7.5-4.78-9.93-8.25-4.87-6.98-8.6-16.43-17.87-18.43-9.83-2.12-18.56,4.63-25.09,11.1-3.58,3.55-7.04,7.33-11.25,10.15s-9.32,4.64-13.58,7.66c-3.66,2.59-6.97,6.34-7.76,10.89-.72,4.13.86,7.88,3.42,11.04s5.71,5.58,8.26,8.66c2.71,3.28,3.68,7.34,5.25,11.2,1.72,4.21,4.24,7.51,8.64,9.1,4.7,1.7,10.23,1.93,15.18,1.67,5.2-.28,10.36-1.33,15.23-3.18,4.72-1.8,8.99-4.45,13.47-6.74s9.21-3.82,14.44-3.45c4.69.33,9.74,1.1,13.83-1.82,1.64-1.17,2.85-2.73,3.37-4.69s-2.4-2.67-2.89-.8c-1.11,4.19-6.24,4.86-9.86,4.67-2.58-.13-5.14-.55-7.73-.43-2.25.1-4.49.57-6.62,1.3-4.43,1.51-8.45,3.95-12.56,6.15s-8.7,4.03-13.44,5.05-9.68,1.27-14.52.81c-4.27-.41-9.16-1.16-11.8-4.93-2.28-3.25-3.09-7.31-4.68-10.9s-4.1-6.27-6.82-8.92c-2.52-2.46-5.45-4.99-6.75-8.36-1.5-3.9,0-7.89,2.69-10.88,3.18-3.53,7.59-5.47,11.73-7.6s8-4.87,11.47-8.16c6.54-6.2,12.64-13.94,22.01-15.69,4.24-.79,8.46.33,11.71,3.18s5.21,6.29,7.32,9.76c4.01,6.6,9.88,14.93,18.68,14.19,1.59-.13,4.2-.99,4.64,1.13.51,2.5.57,5.2.7,7.75.27,5.27.12,10.56-.43,15.81-.28,2.65-.68,5.28-1.17,7.9-.35,1.89,2.54,2.7,2.89.8h0Z"/>
      </g>
      <g>
        <path class="cls-7" d="M529.77,223.91c.73-4.27-3.27-8.69-7.58-8.39-1.86.13-3.62.99-5.48,1-4.62.03-7.65-4.84-9.04-9.25s-2.42-9.49-6.26-12.07c-3.64-2.44-8.51-1.7-12.64-.27s-8.22,3.47-12.59,3.36"/>
        <path class="cls-5" d="M531.22,224.31c.64-4.52-2.38-9.16-6.95-10.12-1.19-.25-2.35-.19-3.54.03-1.44.27-2.87.88-4.36.79-2.04-.12-3.69-1.56-4.84-3.16-2.75-3.83-3.14-8.7-5.14-12.88-2.23-4.65-6.55-7.18-11.71-6.84-6.45.43-12.01,4.71-18.5,4.65-1.93-.02-1.93,2.98,0,3,5.54.05,10.26-2.88,15.5-4.16,2.3-.56,4.76-.8,7.05-.08,2.11.67,3.62,2.25,4.66,4.15,2.1,3.84,2.49,8.35,4.62,12.18s5.5,6.66,9.94,6.02c2.56-.37,4.88-1.58,7.33-.12,1.91,1.14,3.36,3.44,3.04,5.72-.11.81.2,1.6,1.05,1.85.7.2,1.73-.25,1.85-1.05h0Z"/>
      </g>
      <g>
        <path class="cls-7" d="M477.68,203.06c-.09,6.92,5.08,13.57,11.8,15.18,2.58.62,5.46.64,7.51,2.33,3.37,2.79,3.23,9.17,7.44,10.37"/>
        <path class="cls-5" d="M476.18,203.06c0,6.09,3.48,11.93,8.76,14.96,1.29.74,2.7,1.32,4.14,1.67,1.61.39,3.28.52,4.87,1,2.75.82,3.75,3.15,4.79,5.6,1.11,2.61,2.39,5.18,5.28,6.1,1.84.59,2.63-2.31.8-2.89-2.57-.82-3.3-4.51-4.35-6.65-.67-1.36-1.52-2.63-2.73-3.56-1.53-1.18-3.37-1.65-5.23-1.98s-3.61-.62-5.28-1.45-3.01-1.87-4.22-3.18c-2.42-2.61-3.83-6.04-3.83-9.61,0-1.93-3-1.93-3,0h0Z"/>
      </g>
    </g>
    <g>
      <path class="cls-5" d="M413.22,278.52c-7.32,8.47-11.39,19.96-10.11,31.18.67,5.94,3.09,11,7.67,14.91s9.61,6.94,14.61,9.89,10.4,5.56,16.14,6.77c2.88.61,5.83.86,8.76.69,3.19-.19,6.38-.8,9.59-.45s6.03,1.47,8.96,2.4c2.4.77,4.85,1.37,7.35,1.72,4.81.68,9.9.63,14.51-1.06,4.99-1.83,8.6-5.38,10.96-10.12,2.89-5.81,5.13-12,7.64-17.99s5.3-12.4,7.79-18.66c2.17-5.45,3.92-11.73,1.27-17.33-2.08-4.4-6.69-7.62-11.67-6.64-2.52.5-5.07,2.45-7.72,2.03s-4.49-3.13-6.03-5.01c-6.19-7.54-10.83-16.6-18.92-22.4-9.93-7.12-22.17-5.31-33.3-2.59-6.23,1.52-12.41,3.14-18.75,4.16s-13.14,1.61-19.75,1.7c-3.21.05-6.41-.02-9.62-.19-.81-.04-1.5.72-1.5,1.5-.02,6.58,2.3,12.97,6.33,18.15,2.01,2.58,4.42,4.83,7.16,6.63,1.37.91,2.82,1.68,4.33,2.32,1.39.6,3.44,1.1,4.13,2.61.64,1.43-.43,2.99-1.35,4.01-1.28,1.42-2.84,2.51-4.51,3.41s-.19,3.51,1.51,2.59c2.89-1.55,5.96-3.89,7.15-7.07,1.33-3.55-1.04-6.3-4.18-7.64-3.3-1.41-6.32-3.04-8.96-5.51s-4.55-5.14-6.05-8.24c-1.7-3.51-2.57-7.37-2.56-11.27l-1.5,1.5c12.49.66,25.05-.33,37.27-2.95,5.84-1.25,11.56-2.97,17.42-4.12s11.46-1.7,17.04-.27c9.55,2.44,15.38,10.61,20.8,18.21,2.72,3.81,5.43,8.08,8.98,11.17,2.01,1.74,4.33,2.66,7,2.21,2.53-.43,4.81-2.11,7.41-2.13,4.78-.05,7.96,5.04,8.16,9.33.29,6.12-2.91,12.06-5.21,17.55-2.49,5.96-4.99,11.92-7.48,17.88-1.23,2.94-2.44,5.89-3.69,8.81-1.09,2.54-2.29,5.16-4.15,7.24-6.32,7.09-17.39,6.37-25.67,3.83-2.8-.86-5.55-1.92-8.44-2.46s-5.93-.4-8.95-.11-5.78.44-8.68.03c-2.74-.38-5.42-1.15-8-2.12-5.28-2-10.16-4.99-14.87-8.06-4.44-2.89-9.58-5.79-12.55-10.33s-3.44-10.6-2.94-15.98,2.17-10.53,4.77-15.17c1.29-2.3,2.79-4.45,4.52-6.44,1.26-1.45-.86-3.58-2.12-2.12h0Z"/>
      <path class="cls-5" d="M439.53,271.96c-3.99,6.49,5.58,11.67,8.56,16.24,3.22,4.94,4.44,10.95,7.9,15.73,1.88,2.61,4.38,4.57,7.57,5.27,1.88.41,2.69-2.48.8-2.89-5.13-1.12-7.37-6.12-9.26-10.51-1.08-2.51-2.1-5.06-3.42-7.45-1.41-2.55-3.25-4.61-5.33-6.63-1.95-1.89-6.1-5.17-4.22-8.24,1.01-1.65-1.58-3.16-2.59-1.51h0Z"/>
      <path class="cls-5" d="M472.39,304.41c5.05,2.03,8.2,8.04,6.93,13.34-.75,3.13-2.94,6.07-2.26,9.44.58,2.88,3.11,5.19,6.13,4.56,1.89-.39,1.09-3.29-.8-2.89-1.23.26-2.11-1.1-2.36-2.13-.37-1.49.32-3.1.86-4.46,1.11-2.8,1.96-5.43,1.61-8.48-.64-5.48-4.18-10.21-9.31-12.27-1.79-.72-2.57,2.18-.8,2.89h0Z"/>
    </g>
    <g>
      <path class="cls-5" d="M538.8,258.47c-6.08,3.8-12.41,7.76-16.65,13.7-3.61,5.06-5.01,12.1-2.03,17.8,2.72,5.18,8.48,7.4,13.66,9.3,4.42,1.63,10.33,3.26,12.52,7.91,1.62,3.46.27,7.46-.92,10.83-1.05,2.97-2.2,5.81-2.44,8.98-.2,2.65.19,5.5,1.58,7.81,1.56,2.57,4.18,4.06,7.12,4.48,3.96.56,8.18-.03,12.14-.34,4.32-.34,8.64-.78,12.96-1.2,8.53-.82,17.11-1.54,25.69-1.2s16.95,1.53,25.42,0,16.15-4.47,24.08-6.95c4.18-1.31,8.35-2.61,12.53-3.92,3.29-1.03,7.06-1.8,9.84-3.98,2.55-2,3.45-5.23,2.4-8.29-1.11-3.22-3.61-5.5-6.44-7.23-2.99-1.83-6.26-3.13-9.18-5.08-2.34-1.57-4.44-3.48-6.29-5.6-3.64-4.16-6.24-9.12-8.56-14.1-4.7-10.07-8.5-21.06-16.82-28.84-10.55-9.86-25.96-11.88-39.82-11.29-8.18.35-16.35,1.63-24.23,3.86-6.7,1.89-13.53,4.37-18.99,8.81-2.36,1.92-4.37,4.28-5.68,7.04-.82,1.74,1.76,3.26,2.59,1.51,2.69-5.69,8.41-9.11,14.02-11.46,6.88-2.88,14.32-4.66,21.68-5.76s15.03-1.45,22.49-.74c6.78.64,13.66,2.25,19.62,5.63,19.84,11.22,19,38.4,36.31,51.96,2.49,1.95,5.23,3.41,8.04,4.85s6.09,3.08,7.78,6c.65,1.12,1.1,2.46.89,3.77-.24,1.53-1.39,2.58-2.68,3.3s-2.78,1.2-4.22,1.65c-2.05.64-4.1,1.28-6.15,1.92-7.84,2.45-15.67,4.93-23.52,7.35-3.75,1.15-7.54,2.24-11.42,2.86s-8.13.64-12.19.44-8.15-.59-12.24-.73-8.17-.04-12.24.19c-8.01.45-15.97,1.41-23.96,2.09-3.94.33-7.97.78-11.93.65-2.86-.1-5.5-1.1-6.8-3.78-2.6-5.37.81-11.23,2.32-16.34.97-3.29,1.43-6.84.05-10.08-.99-2.32-2.74-4.13-4.81-5.52-4.33-2.91-9.59-3.99-14.28-6.15-2.3-1.06-4.58-2.36-6.2-4.36-1.84-2.27-2.52-5.19-2.33-8.07.44-6.59,5.35-11.69,10.35-15.46,2.7-2.04,5.57-3.83,8.43-5.62,1.63-1.02.13-3.62-1.51-2.59h0Z"/>
      <path class="cls-5" d="M556.89,263.46c-3.99,4.8.1,10.55,3.75,14.13,2,1.96,4.17,3.92,6.79,5.01,1.33.56,2.65.75,4.08.91,1.32.14,2.26.39,2.74,1.69.74,1.99.78,4.23,2.77,5.49,1.21.77,2.63.84,4.02.7s2.74-.51,4.02-.02c1.88.71,2.58,2.9,3,4.68.56,2.37.66,4.81,1.26,7.18,1.61,6.4,5.35,12.14,10.26,16.5,1.44,1.28,3.57-.84,2.12-2.12-4.15-3.69-7.4-8.34-9.06-13.67-1.3-4.19-.81-9.28-3.48-12.97-1.3-1.8-3.26-2.81-5.49-2.83-1.28,0-2.54.37-3.81.32s-1.76-.66-2.1-1.79c-.58-1.94-.87-4.06-2.75-5.23-1.12-.7-2.41-.82-3.69-.96-1.5-.16-2.84-.58-4.13-1.36-2.54-1.53-4.93-3.88-6.73-6.23-1.51-1.96-3.34-5.03-1.44-7.32,1.23-1.47-.89-3.61-2.12-2.12h0Z"/>
      <path class="cls-5" d="M624.84,314.07c.37-9.79.52-19.59.44-29.39-.02-2.44-.02-4.88-.1-7.32-.05-1.67-.28-3.41-1.38-4.74-1.27-1.54-3.18-1.82-5.05-1.95s-3.71-.48-5.44-1.27c-3.57-1.62-6.54-4.62-7.37-8.53-.4-1.89-3.29-1.09-2.89.8,1.55,7.29,8.71,11.5,15.7,12,1.97.14,3.14.62,3.38,2.71s.11,4.41.14,6.57c.05,4.86.04,9.72-.02,14.57-.07,5.52-.21,11.03-.41,16.55-.07,1.93,2.93,1.93,3,0h0Z"/>
    </g>
    <g>
      <polygon class="cls-1" points="23.81 310.28 4.83 108.08 385.08 5.72 419.63 339.56 23.81 310.28"/>
      <path class="cls-6" d="M342.43,249.51c-34.47.15-68.95.3-103.42.45-34.3.15-68.6.3-102.89.45l-58.04.26c-2.35.01-4.61,2.06-4.5,4.5s1.98,4.51,4.5,4.5c34.47-.15,68.95-.3,103.42-.45,34.3-.15,68.6-.3,102.89-.45,19.35-.09,38.7-.17,58.04-.26,2.35-.01,4.61-2.06,4.5-4.5s-1.98-4.51-4.5-4.5h0Z"/>
      <path class="cls-6" d="M338.72,170.37c-34.32,3.55-68.64,7.1-102.96,10.65-34.15,3.53-68.29,7.07-102.44,10.6-19.16,1.98-38.33,3.97-57.49,5.95-2.33.24-4.62,1.9-4.5,4.5.1,2.23,1.99,4.76,4.5,4.5,34.32-3.55,68.64-7.1,102.96-10.65,34.15-3.53,68.29-7.07,102.44-10.6,19.16-1.98,38.33-3.97,57.49-5.95,2.33-.24,4.62-1.9,4.5-4.5-.1-2.23-1.99-4.76-4.5-4.5h0Z"/>
      <path class="cls-6" d="M325.21,95.89c-33.79,6.91-67.58,13.83-101.37,20.74-33.62,6.88-67.24,13.76-100.86,20.64-18.92,3.87-37.84,7.74-56.77,11.61-2.31.47-3.86,3.33-3.14,5.54.79,2.45,3.06,3.65,5.54,3.14,33.79-6.91,67.58-13.83,101.37-20.74,33.62-6.88,67.24-13.76,100.86-20.64,18.92-3.87,37.84-7.74,56.77-11.61,2.31-.47,3.86-3.33,3.14-5.54-.79-2.45-3.06-3.65-5.54-3.14h0Z"/>
    </g>
    <g>
      <path class="cls-5" d="M446.37,73.88c-6.12-3.54-12.82-5.78-19.76-7.11-6.93-1.33-14.18-2.09-21.64-2.38-1.92-.09-3.13-.62-3.61-1.61-.48-.99-.53-1.83-.19-2.47,1.03-.9,2.25-1.38,3.73-1.51,15.11,1.25,29.92,2.97,43.14,11.08.55.46.9,1.08,1.05,1.84.15.76.07,1.31-.19,1.62-.32.39-.66.7-1.03.87-.36.17-.86.06-1.51-.34ZM419.28,96.04c-.49.79-1.18,1.39-2.08,1.81-.9.42-1.8.57-2.69.47-1.59-.23-2.44-.71-2.45-1.53-.01-.82.24-1.7.76-2.66,3.13-5.06,5.17-9.17,6.84-12.95,1.67-3.77,2.98-7.37,4.08-10.92.08-.2.15-.44.19-.73.04-.29.16-.56.34-.8.18-.24.43-.42.76-.53.32-.11.78-.12,1.37-.02,1.66.37,2.72.96,3.18,1.75.46.79.59,1.45.38,1.97-.83,3.61-1.87,7.17-3.28,10.79-1.41,3.62-4.08,8.32-7.38,13.35Z"/>
      <path class="cls-5" d="M476.69,101.02c-1.34-.08-2.84-.33-4.34-.55-1.5-.22-3.05-.4-4.65-.53-1.6-.13-3.22-.14-4.57.14-1.35.29-2.72.9-4.14,1.85-2.01,1.34-3.82,3.13-5.4,5.33-1.58,2.2-3.08,4.54-4.48,6.97-.61,1.19-1.47,2.24-2.59,3.15-1.12.91-2.11,1.07-2.92.46-1.04-.77-1.5-2.07-1.39-3.88.11-1.81.39-3.42.84-4.81,1.7-5.54,3.45-10.84,5.19-15.84,1.74-5,2.25-8.29,3.1-11.78.26-.65.67-.91,1.22-.78.54.13,1.11.43,1.69.9.63.51,1.18,1.11,1.66,1.79.48.68.65,1.33.54,1.93-.53,1.9-.8,3.61-1.66,6.31-.87,2.7-1.62,5.12-2.21,7.2,1.22-1.93,2.7-3.42,4.4-4.41,1.7-.99,3.45-1.49,5.3-1.53,1.85-.04,4.14.52,6.65,1.17,2.5.65,4.89,1.51,7.22,2.46.98.43,1.76.86,2.32,1.29.56.43.91.84,1.02,1.22.11.38-.06.81-.53,1.27-.46.46-1.27.73-2.27.67Z"/>
      <path class="cls-5" d="M506.69,114.5c-.59,1.94-1.3,3.96-2.1,6.02-.79,2.06-1.62,4.07-2.47,6.02-.85,1.96-1.71,3.76-2.57,5.43-.86,1.66-1.58,2.95-2.29,4.14,1.35,2.54,2.02,4.35,1.96,5.51-.06,1.16-.46,1.98-1.1,2.45-.86.64-1.8.71-2.77.06-.98-.65-1.93-1.72-2.84-3.2-1.14-.12-2.43-.29-3.87-.51-1.44-.22-2.93-.51-4.47-.84-1.54-.33-3.06-.71-4.54-1.11-1.48-.4-2.8-.83-3.96-1.31-2.16-.94-3.79-2.25-4.88-4.05-1.09-1.8-1.31-4.02-.86-6.14.3-1.43.93-2.78,1.85-3.98.92-1.2,2.08-2.16,3.48-2.86,1.4-.7,2.98-1.1,4.75-1.2,1.77-.1,3.64.15,5.63.78.51.13,1.17.4,1.99.8.81.41,1.63.9,2.43,1.49.8.58,1.56,1.3,2.26,2.16.7.85,1.25,1.86,1.63,3.01.47-.88.99-1.88,1.54-3,.55-1.12,1.1-2.3,1.64-3.52.54-1.22,1.04-2.4,1.49-3.54.45-1.14.8-2.15,1.06-2.99.31-.96.24-1.73-.25-2.27-.49-.54-1.25-.88-2.25-1.07-1.71-.33-3.9-.41-6.53-.29-2.63.12-5.19.3-7.71.55-.81.13-1.55-.05-2.24-.5-.69-.46-1.17-1.02-1.44-1.69-.27-.67-.3-1.28-.07-1.83.23-.55.82-1.02,1.68-1.25,1.45-.38,3.25-.61,5.09-.93,1.84-.31,3.71-.55,5.59-.71,1.88-.16,3.73-.19,5.52-.06,1.8.13,3.48.51,5,1.19,2.22.99,3.69,2.34,4.39,4.01.69,1.67.77,3.44.23,5.24ZM486.78,125.69c-.82-.43-1.87-.69-3.01-.84-1.14-.14-2.26-.12-3.34.08-1.08.2-2.03.6-2.84,1.2-.81.6-1.31,1.44-1.5,2.55-.06.42.06.84.37,1.26.31.42.74.73,1.29.94,1.63.69,3.59,1.31,5.86,1.92,2.27.6,4.18.93,5.74.89.17-.31.21-.85.12-1.63-.09-.77-.23-1.64-.45-2.46-.22-.82-.52-1.6-.9-2.36-.38-.75-.84-1.3-1.34-1.57Z"/>
      <path class="cls-5" d="M531.06,129.24c.19-.74.33-1.5.48-2.2.14-.69.04-1.17-.32-1.41-.8-.43-1.78-.55-2.91-.31-1.14.24-2.53.78-3.8,1.32-1.27.54-2.43,1.1-3.45,1.72-1.02.62-1.69,1.19-2,1.75-.65,1.03-.84,2.11-.54,3.18.3,1.06.92,2.2,1.85,3.36,1.62,1.77,3.31,3.49,4.98,5.11,1.67,1.61,2.86,3.09,3.78,4.7.91,1.6,1.29,3.42,1.08,5.41-.22,1.98-1.47,4.49-3.14,7.08-1.29,2.01-3.01,3.54-5.29,4.36-2.29.82-5.16,1.12-7.48.81-2.31-.31-4.67-.99-7-1.96-2.33-.97-4.31-1.99-5.9-2.93-.38-.23-.78-.63-1.2-1.2-.41-.57-.78-1.17-1.08-1.79-.31-.62-.54-1.21-.71-1.78-.16-.57-.18-.98-.04-1.25.51-.96,1.36-1.29,2.56-1.04,1.2.25,2.34.68,3.41,1.29,1.51.86,3.16,1.65,4.92,2.34,1.77.69,3.27,1.18,5.09,1.41,1.82.24,3.49.2,5.02-.1,1.52-.29,2.69-.94,3.57-1.85.75-.77.89-1.8.42-3.04-.47-1.24-1.24-2.57-2.32-4.04-1.08-1.47-2.33-2.98-3.72-4.56-1.4-1.58-2.6-3.05-3.51-4.38-.91-1.32-1.56-2.77-1.95-4.3-.39-1.53-.32-3.52.37-5.47.61-1.74,1.83-3.34,3.32-4.73s3.15-2.54,4.96-3.52c1.81-.98,3.68-1.72,5.58-2.31,1.91-.58,3.43-.78,4.85-.52,2.37.59,4.07,1.79,5.03,3.44.96,1.65,1.08,3.86.29,6.62-.37.89-.81,1.6-1.31,2.12-.51.53-1.13.81-1.82.83-.86.02-1.48-.18-1.83-.61-.34-.43-.4-.96-.24-1.58Z"/>
      <path class="cls-5" d="M557.59,124.76c-.63,1.44-1.35,3.03-2.16,4.77-.81,1.74-1.62,3.54-2.43,5.39-.8,1.86-1.64,3.75-2.5,5.68-.87,1.93-1.69,3.78-2.46,5.55,1.21-.72,2.54-1.31,4-1.78s2.97-.7,4.54-.7c1.57,0,3.12.24,4.66.7,1.54.47,3.07,1.29,4.6,2.46,1.66,1.28,2.91,2.88,3.77,4.82.86,1.94,1.41,4.07,1.67,6.38.25,2.32.29,4.71.11,7.14-.18,2.44-.86,4.79-1.65,7.2-.8,2.4-1.73,4.68-2.72,6.77-.99,2.1-1.83,4.01-2.58,5.43-.53,1-1.31,1.63-2.11,1.81-.81.18-1.52-.05-2.13-.69-.45-.47-.8-1.37-1.07-2.71-.27-1.34-.31-2.68,0-3.87.23-.91.74-2.21,1.41-3.81.67-1.61,1.35-3.34,2.03-5.18.67-1.84,1.26-3.73,1.69-5.64.44-1.91.52-3.61.51-5.28,0-1.66-.25-3.16-.74-4.48-.48-1.32-1.3-2.33-2.45-2.99-1.79-1.04-3.72-1.2-5.76-.49-2.04.7-4.04,1.76-5.99,3.21-1.96,1.44-3.74,2.96-5.54,5.19-1.8,2.22-3.25,4.22-4.32,5.65-.81,1.09-1.61,1.77-2.25,2.02-.64.26-1.22.28-1.75.09-.53-.2-.87-.64-1.04-1.34-.17-.7-.25-1.51-.24-2.44,0-.92.08-1.87.21-2.85.13-.97.3-1.8.51-2.4,1.29-3.59,2.52-6.89,3.72-9.97,1.2-3.08,2.42-6.09,3.67-9.07,1.25-2.98,2.55-6,3.92-9.08,1.37-3.08,2.89-6.56,4.88-9.38,1.65-2.33,3.49-2.95,5.59-1.51.69.5,1.06,1.27,1.12,2.32.06,1.05-.23,1.97-.7,3.04Z"/>
      <path class="cls-5" d="M607.69,190c-.03,1.03-.27,2.54-.71,3.78-.45,1.24-1.11,1.84-2.03,1.84-1.18,0-2.22-.6-3.05-1.91-.83-1.31-1.21-3.04-1.25-4.11-.06-1.35.23-3.02.99-4.91.76-1.88,1.71-3.74,2.77-5.54,1.06-1.8,2.15-3.45,3.22-4.92,1.07-1.47,1.88-2.61,2.43-3.28.6-.73,1.43-1.3,2.34-1.67.91-.37,1.74-.37,2.48,0,1.03.84,1.55,1.95,1.54,3.29,0,1.34-.59,2.61-1.57,3.78-.77.91-1.58,2.03-2.43,3.23-.85,1.2-1.62,2.43-2.3,3.69-.68,1.26-1.25,2.48-1.72,3.66-.47,1.18-.68,2.21-.71,3.06ZM629.61,165.65c-.49.45-1.19.4-1.98-.13-.79-.53-1.44-.98-1.92-1.35-1.52-1.1-3.16-2.13-4.9-3.05-1.74-.92-3.88-1.75-6.03-2.38-.92-.22-1.7-.75-2.39-1.56-.69-.81-.75-1.68-.22-2.74.28-.37.69-.59,1.25-.65.56-.06,1.17-.06,1.82.01,1.04.11,2.25.39,3.61.8,1.36.42,2.66.92,3.9,1.51,1.24.59,2.4,1.23,3.48,1.92,1.08.69,1.89,1.45,2.48,2.11.83,1,1.36,2,1.59,3,.22,1,0,1.88-.68,2.51Z"/>
      <path class="cls-5" d="M638.32,182.65c-.41,1.03-.88,2.17-1.4,3.41-.52,1.25-1.05,2.53-1.58,3.84-.53,1.31-1.1,2.59-1.7,3.84-.61,1.25-1.2,2.4-1.77,3.45,1.94-.7,4.01-1.54,6.2-2.59,2.19-1.05,4.35-2.08,6.47-3.11,2.13-1.03,4.13-1.95,6.02-2.76,1.89-.81,3.71-1.39,4.95-1.18,1.86.31,3.1,1.4,3.69,3.15.59,1.75.8,3.79.74,6.52-.05,2.73-.34,5.54-.88,8.37-.54,2.83-1.07,5.3-1.53,7.39-.41,1.88-1.56,2.87-3.95,3.34-1.15.22-1.92.13-2.24-.29-.32-.42-.4-.82-.35-1.11.11-.7.27-2.18.73-4.18.46-2,.89-4.1,1.27-6.29.39-2.18.56-4.13.49-5.77-.07-1.64-.72-2.34-1.86-2.31-1.32.03-3.04.77-5.05,2.16-1.65,1.14-3.45,2.16-5.28,3.06-1.83.9-3.63,1.68-5.39,2.43-1.76.75-3.48,1.45-5.12,2.17-1.64.72-3.12,1.38-4.46,2-.73.01-1.53-.17-2.42-.56-.9-.39-1.58-.94-2.24-1.64-.6-.63-1.06-1.29-1.33-1.97-.27-.67-.34-1.21-.2-1.59.93-4.69,2.63-8.69,4.77-12.44,2.14-3.74,4.28-7.94,6.19-12.44.53-1.64,1.22-2.72,2.08-3.25.86-.53,2.02-.07,3.53,1.34,2.05,2.08,2.62,4.38,1.62,7Z"/>
      <path class="cls-5" d="M728.02,227.47c-1.44,3.2-2.89,6.45-4.33,9.72-1.44,3.28-3.03,6.43-4.77,9.45-1.74,3.02-3.64,5.87-5.71,8.54-2.06,2.67-4.42,5.04-7.07,7.1-2.64,2.06-5.61,3.72-8.9,4.98-3.29,1.26-7,2.02-11.13,2.28-.65.04-1.28-.06-1.9-.3-.62-.24-1.19-.54-1.7-.91-.51-.37-.94-.76-1.27-1.18-.33-.42-.47-.84-.41-1.24.09-.61.48-1.14,1.18-1.59.7-.45,1.67-.8,2.91-1.06,3.73-.54,7.09-1.4,10.06-2.6,2.98-1.2,5.68-2.76,8.09-4.68,2.41-1.92,4.55-4.25,6.42-6.99,1.86-2.74,3.52-5.93,4.95-9.57-1.2.49-2.54.95-4.01,1.37-1.48.42-2.97.72-4.46.88-1.5.16-2.96.19-4.4.09-1.44-.1-2.68-.42-3.74-.94-.87-.44-1.65-1.04-2.34-1.82-.69-.78-1.25-1.9-1.57-3.29-.39-1.67-.52-3.47-.54-5.54-.02-2.08.05-4.05.21-5.9.16-1.86.36-3.49.59-4.91.24-1.41.47-2.39.62-2.9.19-.64.45-1.24.84-1.7.39-.46.98-.53,1.74-.24,1.04.39,1.91.97,2.59,1.75.68.77,1.04,1.6,1,2.39-.04.76-.24,1.99-.48,3.6-.24,1.61-.38,3.26-.41,4.95-.03,1.69.07,3.3.27,4.63.2,1.34.71,2.21,1.51,2.61.93.47,2.26.58,3.99.36,1.73-.23,3.54-.74,5.45-1.53,1.9-.79,3.72-1.83,5.45-3.11,1.73-1.28,3.01-2.73,3.86-4.34.18-.35.45-.72.82-1.12.37-.4.79-.75,1.26-1.06.47-.31.97-.53,1.48-.68.51-.15.96-.16,1.36-.03,1.05.38,1.81,1.07,2.27,2.06.46.99.53,1.81.19,2.44Z"/>
      <path class="cls-5" d="M759.94,239.72c1.53,1.57,2.6,3.3,3.21,5.21.61,1.9.84,3.82.7,5.75-.15,1.93-.61,3.75-1.39,5.47-.78,1.72-1.8,3.26-3.05,4.36-1.44,1.28-3.23,2.42-5.1,3.45-1.87,1.03-3.81,1.8-5.81,2.33-2,.53-4.07.73-6.2.61-2.13-.12-4.25-.71-6.37-1.77-2.55-1.27-4.41-2.9-5.57-4.86-1.17-1.96-1.79-4.06-1.88-6.29-.09-2.23.3-4.5,1.17-6.83.87-2.33,2.09-4.5,3.58-6.5,1.09-1.47,2.34-2.85,3.72-4.08,1.39-1.23,2.86-2.2,4.41-2.92,1.55-.71,3.13-1.15,4.73-1.29,1.6-.14,3.18.17,4.74.95.87.43,1.87,1.14,3.01,2.11,1.14.97,2.12,2.02,2.93,3.16,1.17-.29,2.22.09,3.16,1.15ZM753.1,244.26c-.47-.75-.99-1.68-1.54-2.79-.55-1.11-1.17-1.84-1.86-2.18-.75-.37-1.64-.42-2.69-.15-1.05.28-2.05.7-3.02,1.27-.97.57-1.86,1.2-2.69,1.87-.82.68-1.44,1.25-1.83,1.7-.64.77-1.31,1.75-2,2.92-.69,1.18-1.23,2.42-1.6,3.73-.37,1.31-.45,2.61-.23,3.92.22,1.31.93,2.52,2.15,3.64.75.67,1.78,1.16,3.1,1.5,1.31.33,2.73.44,4.24.32,1.51-.12,3.08-.5,4.71-1.14,1.63-.64,3.12-1.57,4.46-2.79,1.49-1.36,2.43-3.1,2.78-5.2.36-2.11-.15-4.02-1.53-5.73-.59.07-1.1,0-1.53-.22-.44-.22-.75-.44-.93-.68Z"/>
      <path class="cls-5" d="M781.78,256.42c-1.19,1.37-2.46,2.9-3.81,4.58-1.35,1.69-2.56,3.35-3.62,5.01-1.06,1.65-1.87,3.21-2.44,4.67-.57,1.46-.69,2.64-.37,3.52.97.7,2.4.89,4.29.56,1.89-.32,3.9-.94,6.02-1.84,2.12-.9,4.18-2,6.19-3.29,2.01-1.29,3.59-2.51,4.75-3.68.61-.57,1.21-1.18,1.79-1.83.58-.65,1.08-1.39,1.5-2.2.24-.46.8-.74,1.68-.85.88-.11,1.56-.06,2.02.08.33.1.67.33.98.71.31.37.56.81.73,1.29.18.48.29,1.02.34,1.59.05.57-.04,1.09-.28,1.55-.78,1.79-1.59,3.79-2.43,5.98-.84,2.2-1.63,4.42-2.37,6.67-.74,2.25-1.44,4.44-2.09,6.59-.65,2.14-1.2,4.09-1.64,5.83-.15.73-.71,1.35-1.69,1.88-.98.53-1.88.72-2.63.54-.61-.15-1.17-.51-1.64-1.03-.47-.53-.7-1.23-.63-2.06.08-.94.33-2.1.67-3.42.34-1.32.74-2.69,1.2-4.09.46-1.4.91-2.74,1.34-4.02.43-1.27.83-2.33,1.19-3.17-1.75,1.09-3.67,2.11-5.77,3.06-2.1.95-4.23,1.7-6.36,2.27-2.14.57-4.19.81-6.15.74-1.96-.07-3.74-.61-5.32-1.63-2.34-1.53-3.1-4.64-2.29-9.33.35-1.86,1.05-3.77,2.1-5.71,1.06-1.94,2.23-3.81,3.52-5.6,1.29-1.79,2.59-3.45,3.9-4.98,1.31-1.53,2.4-2.76,3.29-3.7.36-.4.83-.69,1.4-.88.57-.19,1.07-.1,1.51.26.84.64,1.42,1.58,1.75,2.84.33,1.25.12,2.28-.61,3.08Z"/>
      <path class="cls-5" d="M842.07,281.22c-1.35.08-2.9.04-4.44.07-1.54.03-3.14.16-4.79.39-1.65.23-3.31.63-4.99,1.21-1.68.58-3.36,1.44-5.04,2.55-2.38,1.57-4.4,3.38-6.02,5.44-1.63,2.06-3.08,4.15-4.34,6.28-.54,1.04-1.36,1.96-2.44,2.76-1.09.8-2.1.97-3.03.5-1.18-.59-1.84-1.63-1.96-3.11-.13-1.48-.04-2.8.25-3.96,1.09-4.62,2.34-9.1,3.75-13.45,1.41-4.34,2.91-8.63,4.49-12.86.42-.81.96-1.19,1.61-1.16.65.03,1.3.25,1.95.65.71.43,1.34.96,1.87,1.59.53.63.69,1.29.49,1.99-.87,2.26-1.73,4.65-2.58,7.17-.85,2.52-1.52,4.71-2.03,6.57,1.27-1.84,2.95-3.39,5.04-4.68,2.08-1.28,4.34-2.26,6.77-2.94,2.43-.68,4.96-1.01,7.58-1.01,2.62,0,5.11.38,7.47,1.12.99.35,1.77.74,2.33,1.17.56.43.89.85.99,1.26.1.41-.1.9-.58,1.45-.49.56-1.32.95-2.35,1.01Z"/>
    </g>
    <g>
      <path class="cls-5" d="M679.86,300.61c-2.58,4.28-5.11,9.44-1.58,13.94,1.4,1.78,3.43,2.98,5.62,3.53,2.52.64,5.27.44,7.51,1.94,2.97,1.99,4.03,5.87,6.42,8.43,3.58,3.85,9.14,4.2,14.05,4.72,6.38.68,12.76,1.37,19.13,2.05,5.67.61,11.65,1.78,16.74-1.51,2.37-1.54,4.54-3.44,6.76-5.19,1.13-.89,2.27-1.78,3.4-2.67,1.02-.8,2.27-1.57,2.83-2.79s.14-2.46-.4-3.64c-.58-1.26-1.04-2.54-1.35-3.9-.56-2.54-.5-5.21.15-7.73.38-1.49.95-2.91,1.68-4.26.67-1.23,1.81-2.38,2.19-3.74.84-2.96-3.27-4.39-5.3-5.38-5.83-2.84-12.07-4.73-18.45-5.83l1.05,1.05c-.61-4.22-4.58-7.1-8.34-8.41-4.41-1.54-9.72-1.46-14.07.23-1.1.43-2.32.32-3.51.36-1.56.06-3.12.11-4.68.17-2.79.1-5.58.2-8.37.3-2.96.11-5.91.21-8.87.32l-3.94.14c-1.24.04-2.74-.09-3.85.56s-1.32,1.85-1.44,3.06c-.17,1.63-.32,3.26-.47,4.89-.32,3.26-.63,6.51-.95,9.77-.19,1.92,2.81,1.91,3,0,.24-2.52.49-5.05.73-7.57.12-1.22.24-2.44.36-3.66.06-.57.11-1.14.17-1.71.06-.65,0-1.58.21-2.2.09-.27.06-.06-.09.02.17-.09.46-.07.65-.09.56-.05,1.13-.04,1.69-.06l3.94-.14,7.64-.28c5.09-.18,10.18-.37,15.27-.55,1.17-.04,2.24,0,3.32-.43.99-.39,2.03-.67,3.07-.87,2.04-.39,4.2-.43,6.25-.14,3.88.56,8.78,2.73,9.41,7.09.07.46.59.97,1.05,1.05,5.14.88,10.22,2.25,15.03,4.29,1.1.47,2.19.97,3.27,1.51.56.28,1.11.57,1.66.87.24.13,1.62.71,1.67.97.02.13-.65.95-.72,1.06-.32.48-.63.97-.92,1.47-.62,1.08-1.14,2.23-1.58,3.4-1.64,4.41-1.67,9.4,0,13.82.28.74,1.41,2.39,1.05,3.11-.22.44-.97.86-1.36,1.17-.63.49-1.26.99-1.89,1.48-2.14,1.68-4.28,3.37-6.42,5.04-1.94,1.51-3.95,2.83-6.43,3.18s-5.27-.03-7.85-.31c-5.72-.61-11.45-1.23-17.17-1.84-2.75-.3-5.52-.54-8.26-.91-2.31-.31-4.76-.73-6.78-1.96-2.89-1.77-4.04-5.15-6.02-7.73-1.27-1.66-2.86-2.93-4.82-3.67-2.47-.94-5.25-.64-7.66-1.73-1.86-.84-3.47-2.49-3.75-4.58-.39-2.85,1.57-5.69,2.96-8,1-1.66-1.59-3.17-2.59-1.51h0Z"/>
      <path class="cls-5" d="M694.67,301.94c-1.35.73-1.95,2.15-1.37,3.59.65,1.61,2.32,2.38,3.91,2.76,1.79.43,3.67.48,5.4,1.19,1.26.51,2.35,1.32,3.3,2.28,1.93,1.95,3.32,4.37,5.29,6.28,2.27,2.2,5.07,3.37,8.08,4.16,3.43.9,7.3,1.3,10.23,3.45,1.56,1.15,3.05-1.46,1.51-2.59-2.94-2.17-6.77-2.72-10.23-3.58s-6.34-2.11-8.71-4.9c-2.02-2.38-3.65-5.05-6.32-6.81-1.5-.99-3.22-1.56-4.98-1.88-1.13-.2-2.29-.3-3.39-.66-.48-.16-.77-.4-1.19-.63-.08-.09-.14-.19-.17-.3-.16.34-.11.41.14.22,1.7-.92.19-3.51-1.51-2.59h0Z"/>
      <path class="cls-5" d="M733.44,293.18c-6.18-.61-12.4-.35-18.51.73-.78.14-1.27,1.13-1.05,1.85.97,3.08,2.16,6.19,4.58,8.45,3.04,2.85,7.25,3.25,10.62,5.5,1.75,1.16,3.31,2.61,4.92,3.95,1.88,1.56,3.75,3.12,5.63,4.68.58.48,1.98,1.25,2.19,1.97.19.63-.73,1.74-1.1,2.19-1.25,1.51-2.95,2.54-4.72,3.34s-.23,3.38,1.51,2.59c1.89-.85,3.69-2,5.09-3.54,1.26-1.39,2.72-3.45,2.1-5.43s-3.01-3.28-4.46-4.49c-2-1.66-4-3.33-6-4.99-1.73-1.44-3.46-2.94-5.51-3.92s-4.08-1.44-5.99-2.45c-3.42-1.81-4.87-5.12-5.97-8.64l-1.05,1.85c5.85-1.04,11.81-1.21,17.71-.62,1.92.19,1.91-2.81,0-3h0Z"/>
    </g>
    <g>
      <g>
        <path class="cls-7" d="M621.48,267.25c5.9-6.12,12.16-14.26,8.28-21.26-1.31-2.37-3.63-4.15-5.43-6.26-5.34-6.25-5.7-14.7-5.87-22.59-.07-3.35-.27-6.99-2.75-9.49-4.75-4.78-14.21-2.06-19.56,2.5-2.43,2.07-5.19,4.67-8.48,4.23-1.72-.23-3.09-1.28-4.45-2.2-11.29-7.58-28.62-7.57-40.43.03-1.2.77-2.42,1.72-2.69,2.98-.41,1.95,1.57,3.53,2.44,5.33,1.41,2.89-.12,6.22-.6,9.37-.89,5.74,2.03,11.72,7.35,15.01,2.57,1.59,5.64,2.61,7.82,4.6,3.19,2.92,3.84,7.33,6.35,10.73,4.35,5.88,13.35,7.58,21.49,7.59,8.14,0,16.54-1.16,24.24.94,2.58.71,5.06,1.78,7.77,2.02,2.71.24,5.85-.61,7.1-2.77"/>
        <path class="cls-5" d="M622.54,268.31c5.74-5.99,13.91-15.86,7.74-24.27-1.44-1.96-3.32-3.52-4.89-5.37s-2.69-3.97-3.47-6.22c-1.52-4.41-1.79-9.11-1.92-13.73-.12-4.29-.04-9.18-3.45-12.35-2.96-2.75-7.15-3.11-10.96-2.39-4.15.79-7.88,2.87-11.07,5.59-1.55,1.33-3.31,2.96-5.41,3.3-2.34.37-4.2-1.43-6.04-2.57-7.47-4.62-16.75-6.06-25.38-4.92-4.38.58-8.64,1.82-12.6,3.79-1.89.94-4.07,2.04-5.43,3.7-1.53,1.86-1.28,4.03-.02,5.95.53.81,1.21,1.56,1.61,2.45.57,1.28.4,2.75.14,4.08-.47,2.35-1.18,4.63-1.09,7.05.15,4.32,2.11,8.46,5.21,11.44,1.75,1.68,3.81,2.85,5.97,3.94s4.28,2.12,5.75,4.05c2.69,3.53,3.42,8.07,6.74,11.21,6.56,6.21,16.77,6.46,25.23,6.19,5.54-.18,11.19-.62,16.68.32,4.84.84,9.53,3.57,14.54,2.46,2.01-.44,3.82-1.51,4.93-3.26,1.04-1.64-1.56-3.14-2.59-1.51s-3.14,2.06-4.9,2.06c-2.41,0-4.71-.92-6.98-1.62-4.88-1.51-9.98-1.77-15.05-1.67-8.6.17-18.13,1.45-26.12-2.61-1.67-.85-3.19-1.92-4.44-3.33-1.36-1.53-2.2-3.44-3.04-5.29s-1.77-3.77-3.13-5.38c-1.44-1.71-3.4-2.84-5.37-3.85s-3.91-1.89-5.55-3.33c-1.55-1.36-2.8-2.99-3.68-4.85s-1.26-3.75-1.22-5.7c.04-2.32.9-4.53,1.21-6.82s-.07-4.4-1.41-6.35c-.49-.71-1.17-1.44-1.43-2.27-.33-1.03.47-1.73,1.24-2.31,3.27-2.43,7.36-3.95,11.29-4.89,7.87-1.88,16.64-1.35,24.03,2.05,1.84.85,3.51,1.9,5.19,3.02s3.62,1.99,5.74,1.76c4.22-.46,6.84-4.13,10.23-6.23,3.14-1.95,7.02-3.35,10.76-2.95,1.55.16,3.12.72,4.28,1.8,1.52,1.42,2.14,3.42,2.36,5.44.48,4.31.21,8.66.8,12.97s1.77,8.44,4.21,11.98,6.97,6.13,7.59,10.61c.59,4.22-2.06,8.37-4.5,11.57-1.38,1.8-2.91,3.49-4.48,5.12-1.34,1.39.78,3.52,2.12,2.12h0Z"/>
      </g>
      <g>
        <path class="cls-7" d="M608.8,245.51c-4.29,1.13-9.36,2.14-12.77-.24-3.44-2.41-3.44-7.17-6.5-9.93-3.46-3.13-28.54-3.06-14.32-1.45,5.17.59-11.76,2.26-14.27-1.65"/>
        <path class="cls-5" d="M608.4,244.06c-3.53.92-8.52,2.32-11.73-.19-2.75-2.15-3.14-6.26-5.38-8.87-1.26-1.47-2.99-2.05-4.83-2.47-2.21-.5-4.49-.76-6.74-.96-2.06-.18-4.14-.29-6.21-.28-1.09,0-2.85-.18-3.69.68-.78.8-.46,2.02.47,2.52.58.31,1.29.39,1.93.5.56.09,1.13.17,1.7.24s1.15.16,1.38.17c.1,0,.22.09.32.08-1.01.07-.92-2.64-.07-2.61-.22,0-.53.13-.75.17-.14.02.04,0-.36.05-.25.02-.5.05-.75.07-.55.04-1.1.07-1.66.08-1.32.04-2.65.01-3.97-.09s-2.55-.27-3.78-.62c-.52-.15-.92-.29-1.36-.52-.07-.04-.5-.32-.35-.2-.1-.08-.46-.5-.33-.31-1.09-1.58-3.69-.08-2.59,1.51,1.25,1.82,3.55,2.46,5.62,2.81,2.47.42,4.99.52,7.49.4,1.31-.06,3.92.09,4.71-1.25,1.5-2.56-2.93-2.62-4.17-2.81-.4-.06-.79-.12-1.19-.21-.12-.03-.23-.06-.35-.08-.45-.07.03,0,0,.03,0-.01-.07-.03-.07-.04v2.45c-.1.04-.2.08-.3.12.03-.05.17-.02.2-.05.15-.15-.12.01-.02,0,.15-.01.3-.03.45-.04,1.84-.12,3.7-.03,5.54.08,2.27.13,4.54.34,6.78.74.95.17,1.9.37,2.82.66.4.13.72.25.83.31.12.06.25.13.36.2.38.23-.19-.28.35.3,2.78,2.98,3.02,7.5,6.56,9.93,4.04,2.79,9.54,1.54,13.92.4,1.87-.49,1.08-3.38-.8-2.89h0Z"/>
      </g>
    </g>
    <text class="cls-4" transform="translate(864.4 342.36) scale(1.21 1)"><tspan x="0" y="0">room</tspan></text>
    <g>
      <path class="cls-5" d="M820.61,318.34l-1.83,2.67c-.53.78-1.35,1.64-1.48,2.61-.27,1.95,1.97,2.21,2.79,3.59.89,1.5.88,3.32.82,5-.08,2.15-.26,4.39.51,6.46s2.1,2.81,4.1,3.21c2.36.47,4.73.84,7.12,1.15,4.57.59,9.29,1,13.9.83,1.58-.06,3.35-.35,4.52-1.51,1.33-1.33,1.3-3.23.48-4.82-.9-1.75-2.2-3-2.43-5.06-.21-1.83.13-3.7.44-5.5.64-3.76,1.24-7.54-.44-11.12-1.5-3.2-4.45-5.59-7.72-6.78-4.34-1.58-9.24-.87-13.37.99-.96.43-2,.94-2.57,1.87-.52.85-.5,1.83-.74,2.77-.5,1.95-1.97,3.61-3.85,4.34-1.78.69-1.01,3.59.8,2.89,2.91-1.13,5.26-3.51,5.98-6.61.15-.66.07-1.53.59-2,.63-.56,1.73-.88,2.51-1.15,1.67-.59,3.42-.95,5.19-.97,3.31-.05,6.5,1.1,8.79,3.53s2.76,5.48,2.36,8.7-1.35,6.37-.91,9.61c.22,1.67.85,3.11,1.8,4.49.74,1.07,1.96,2.55.14,3.12-1.57.49-3.45.24-5.06.19-2.11-.05-4.21-.17-6.31-.36s-4.09-.42-6.12-.73c-.96-.15-1.92-.31-2.88-.48-.86-.16-2-.19-2.77-.6-1.66-.87-1.15-4.47-1.08-5.98.07-1.76.08-3.55-.46-5.25-.5-1.56-1.4-3.01-2.82-3.89-.11-.07-.3-.22-.43-.24l-.25-.12.4.87c.19-.02.79-1.15.92-1.33l1.96-2.86c1.1-1.6-1.5-3.1-2.59-1.51h0Z"/>
      <path class="cls-5" d="M830.57,318.47c-.49.99-.61,2.11-.2,3.15.21.54.51,1.04.93,1.44.2.19.43.36.67.5.1.06.2.11.3.16.05.03.1.05.15.08.09.06.1.06.04,0l-.12-.23.04.17c.02-.13-.02.1-.02.12-.02.27-.02.54-.04.82-.03.6-.08,1.21-.14,1.81-.11,1.18-.29,2.35-.5,3.52-.15.8.22,1.62,1.05,1.85.73.2,1.7-.25,1.85-1.05.23-1.22.41-2.44.54-3.68.13-1.13.28-2.31.24-3.44-.02-.69-.2-1.35-.67-1.88-.36-.41-.83-.61-1.28-.89.21.13-.24-.27-.09-.07-.02-.03-.2-.35-.13-.21.05.12-.04-.14-.05-.17,0-.03-.05-.31-.04-.16s0-.14.01-.17c.03-.24-.06.2.01-.04.02-.06.14-.32.03-.12.36-.72.19-1.62-.54-2.05-.66-.39-1.69-.19-2.05.54h0Z"/>
      <path class="cls-5" d="M839.63,329.65c.04-.08.08-.15.13-.22-.11.13-.1.14.01.01.13-.11.12-.12-.01,0,.07-.05.14-.09.22-.13.15-.08.15-.08,0,0,.06-.02.12-.04.19-.06.08-.02.52-.07.18-.05.18,0,.35-.01.53,0-.35-.03.17.06.25.08.28.07-.13-.12.12.06.08.04.15.09.22.14-.12-.09-.11-.07.03.05.34.4.55.85.56,1.41,0,.15,0,.31-.01.46.02-.25-.06.3-.08.36-.11.39-.23.63-.4,1.02-.42.97-.67,1.91-.49,2.97.14.85.58,1.59,1.13,2.24,1.09,1.28,2.67,2.03,4.2,2.66.75.31,1.65-.33,1.85-1.05.24-.86-.3-1.54-1.05-1.85.2.08-.14-.06-.19-.08-.14-.06-.28-.13-.42-.2-.3-.15-.6-.31-.89-.48-.21-.12-.59-.38-.67-.44-.09-.07-.43-.4-.61-.58s.02.08-.11-.14c-.07-.12-.14-.23-.21-.35-.13-.22,0,.11-.05-.14-.01-.06-.03-.13-.05-.19-.06-.21,0,.22,0,0,0-.52.22-.97.49-1.6.65-1.51.78-3.14.12-4.67-.61-1.42-1.86-2.43-3.4-2.64-1.63-.22-3.33.44-4.16,1.91-.4.71-.17,1.64.54,2.05s1.65.17,2.05-.54h0Z"/>
    </g>
    <g>
      <path class="cls-5" d="M776.35,168.71c-3.72,4.29-5.51,9.54-5.6,15.19s1.28,11.25,2.51,16.73c1.36,6.04,2.59,12.13,4.17,18.12,1.42,5.38,3.32,10.71,6.33,15.42s7.14,10.38,13.15,9.59c2.97-.39,5.53-2,8.15-3.34,2.38-1.22,4.93-2.03,7.52-2.64,5.73-1.36,11.63-1.8,17.45-2.61s11.36-2.05,16.67-4.5c10.55-4.87,18.56-13.6,26.67-21.64,4.61-4.57,9.65-8.98,13.64-14.12,3.3-4.25,5.9-9.99,2.51-14.99-2.97-4.39-8.29-6.45-12.43-9.48-4.51-3.3-7.14-8.27-10.52-12.58-6.76-8.62-17.54-11.78-28.09-12.52-12.12-.85-24.09,1.83-35.3,6.29-5.64,2.24-11.11,4.87-16.53,7.59-4.85,2.43-10.55,4.85-13.91,9.31-1.37,1.82-1.98,3.9-1.58,6.16.34,1.9,3.23,1.09,2.89-.8-.36-2.01,1.05-3.76,2.42-5.05,1.9-1.79,4.2-3.13,6.48-4.37,4.99-2.71,10.15-5.2,15.33-7.53,10.49-4.73,21.66-8.34,33.23-8.72,9.52-.32,20.48.99,28.27,6.99,4.18,3.22,6.7,7.9,9.88,12,1.6,2.06,3.39,3.92,5.47,5.5s4.22,2.78,6.35,4.14c1.94,1.24,3.99,2.58,5.35,4.47,1.48,2.06,1.6,4.42.77,6.76-1.88,5.35-6.91,9.47-10.81,13.35-4.38,4.36-8.74,8.74-13.17,13.05-3.6,3.51-7.34,6.9-11.52,9.72-4.54,3.06-9.5,5.34-14.82,6.64-5.35,1.31-10.86,1.79-16.32,2.5s-10.51,1.5-15.39,3.57c-2.47,1.05-4.72,2.64-7.27,3.48-1.17.39-2.4.62-3.62.4-1.48-.27-2.57-1.23-3.61-2.26-7.72-7.68-10.29-18.13-12.6-28.41-1.33-5.89-2.81-11.77-3.9-17.71-.89-4.84-1.34-9.95.1-14.72.76-2.54,2.08-4.84,3.81-6.84,1.26-1.45-.85-3.58-2.12-2.12h0Z"/>
      <path class="cls-5" d="M799.5,177.74c-3.84,4.47-1.75,10.42,3.05,13.18,1.38.8,2.92,1.26,4.42,1.78s3.05,1.13,3.68,2.77c.68,1.78,1.02,3.74,1.51,5.59.53,2.01,1.06,4.03,1.58,6.04,1.2,4.59,2.41,9.19,3.61,13.78.49,1.87,3.38,1.07,2.89-.8-1.27-4.84-2.54-9.67-3.8-14.51-.63-2.42-1.27-4.84-1.9-7.25-.53-2.04-.87-4.34-2.3-5.97-2.49-2.85-6.9-2.6-9.67-5.09-2.17-1.96-2.98-5.03-.95-7.4,1.25-1.46-.86-3.59-2.12-2.12h0Z"/>
      <path class="cls-5" d="M837.55,194.04c-2.47-8.73,3.05-17.75-.41-26.41-2.79-6.99-10.49-10.83-17.75-10.79-1.93.01-1.93,3.01,0,3,6.74-.04,13.83,3.76,15.53,10.66.95,3.88.22,7.94-.35,11.82-.62,4.18-1.08,8.38.09,12.52.53,1.85,3.42,1.07,2.89-.8h0Z"/>
    </g>
    <g>
      <path class="cls-5" d="M504.34,48.85c-.96,3.22-.91,6.72.16,9.91.51,1.54,1.23,3.03,2.16,4.36.47.67.98,1.32,1.54,1.93.63.68,1.42,1.24,1.97,1.98,1.12,1.48.45,4.43.13,6.12-.38,2.01-1.05,3.89-1.8,5.79-1.28,3.23-1.39,6.45,1.08,9.14,2.02,2.2,5.11,3.43,8,3.9,1.86.3,3.74.26,5.62.38,2.07.13,3.95.74,5.81,1.63,3.31,1.59,6.58,3.52,10.38,3.48,3.57-.04,6.08-2.09,7.88-5.01.77-1.25,1.43-2.61,2.39-3.73s2.09-1.77,3.35-2.37c2.5-1.19,5.27-1.89,7.44-3.68,2.8-2.3,2.7-5.64,2.7-8.97,0-4.41,0-8.82,0-13.23,0-2.12,0-4.25,0-6.37,0-1.77.18-3.76-1.35-5-1.4-1.14-3.65-1.46-5.38-1.7-1.97-.28-3.97-.15-5.93-.46-5.35-.85-7.29-6.9-10.88-10.19-1.95-1.78-4.4-2.81-7.06-2.48-3.51.43-6.21,2.93-9.57,3.81-3.88,1.02-7.99.07-11.94.23-1.72.07-3.72.2-5.24,1.07s-1.92,2.45-1.91,4.14c.02,2.13.05,4.27.07,6.4.02,1.93,3.02,1.93,3,0s-.04-3.79-.07-5.69c0-.63-.23-1.71.27-2.19.55-.52,1.86-.57,2.55-.65,3.54-.4,7.11.31,10.66.08s6.16-1.59,9.19-3.1c2.4-1.2,4.92-1.74,7.23-.09,1.72,1.23,2.94,3.11,4.17,4.79,1.38,1.87,2.8,3.72,4.71,5.09,2.57,1.84,5.56,1.83,8.58,2.02,1.65.1,3.73.27,5.24,1.02.83.41.66,1.09.66,1.92,0,1.14,0,2.29,0,3.43,0,3.92,0,7.84,0,11.76,0,1.96,0,3.92,0,5.88,0,1.58.24,3.45-.53,4.9-1.05,1.99-3.64,2.8-5.59,3.59-2.48,1-4.97,2.06-6.71,4.19s-2.56,4.97-4.72,6.59c-2.68,2.01-6.46.69-9.14-.6-3.29-1.58-6.32-3.21-10.03-3.48-3.16-.23-6.23-.08-9.15-1.55-1.18-.6-2.35-1.39-3.08-2.52-.97-1.51-.7-3.11-.12-4.72,1.41-3.92,2.88-7.84,2.62-12.1-.13-2.17-1.21-3.42-2.7-4.86-1.19-1.15-2.15-2.46-2.89-3.94-1.56-3.11-1.85-6.71-.86-10.03.55-1.85-2.34-2.65-2.89-.8h0Z"/>
      <path class="cls-5" d="M516.47,55.08c5.57,5.65,7.3,14.2,4.22,21.53-.32.75.34,1.64,1.05,1.85.86.25,1.53-.3,1.85-1.05,3.48-8.28,1.26-18.11-4.99-24.45-1.36-1.38-3.48.74-2.12,2.12h0Z"/>
      <path class="cls-5" d="M538.06,77.29c.59-2.67.66-5.37.21-8.06-.22-1.32-.58-2.61-1.07-3.85-.25-.64-.53-1.27-.84-1.89s-.83-1.25-1.01-1.91c-.23-.83.67-1.39,1.38-1.6s1.53-.11,2.25.14c1.41.5,2.59,1.66,2.42,3.22-.1.92,1.05,1.77,1.9,1.45,3.74-1.42,7.36-3.1,10.85-5.06,1.68-.95.17-3.54-1.51-2.59-3.26,1.83-6.64,3.43-10.13,4.76l1.9,1.45c.58-5.23-6.75-8.28-10.52-5.17-1.2.99-1.88,2.52-1.46,4.07s1.57,2.98,2.13,4.55c1.11,3.12,1.35,6.46.63,9.69-.42,1.88,2.48,2.68,2.89.8h0Z"/>
    </g>
  </g>
</svg>