<?xml version="1.0" encoding="utf-8"?>
<!-- Generator: Adobe Illustrator 28.3.0, SVG Export Plug-In . SVG Version: 6.00 Build 0)  -->
<svg version="1.1" id="Layer_1" xmlns="http://www.w3.org/2000/svg" xmlns:xlink="http://www.w3.org/1999/xlink" x="0px" y="0px"
	 viewBox="0 0 339 305" style="enable-background:new 0 0 339 305;" xml:space="preserve">
<style type="text/css">
	.st0{opacity:0.7;}
	.st1{fill:#DF1A16;}
	.st2{fill:#EF5A24;}
	.st3{fill:#F9AE3B;}
	.st4{font-family:'Trattatello';}
	.st5{font-size:81.4555px;}
</style>
<text transform="matrix(1 0 0 1 506.6938 140.7979)"><tspan x="0" y="0" style="font-family:'Maku-Regular'; font-size:13.2244px;">My</tspan><tspan x="0" y="15.9" style="font-family:'Maku-Regular'; font-size:13.2244px;">Malaysia</tspan></text>
<text transform="matrix(1 0 0 1 506.8701 222.1006)"><tspan x="0" y="0" style="font-family:'ChalkboardSE-Bold'; font-size:8.8009px;">My</tspan><tspan x="0" y="10.6" style="font-family:'ChalkboardSE-Bold'; font-size:8.8009px;">Malaysia</tspan></text>
<image style="overflow:visible;" width="862" height="862" xlink:href="../../../../../../../Desktop/Screenshot 2024-04-10 at 12.59.20 AM.png"  transform="matrix(0.2995 0 0 0.2935 474 -112)">
</image>
<g class="st0">
	<g>
		<path class="st1" d="M116.5,159.6c-5.1-2.7-11.2-0.8-16.6,0.9c-18.8,5.3-38.9,11.8-58.4,6.1l-0.4,0c-10.9-5.7-26.8-14.5-25.4-28.9
			c0.1-9.8,10.3-14,13.3-21.9c-1.4-12-3.8-25.4,6-35c2.9-3.7,7.4-4.7,11.8-4.8c10.4-0.4,17.1-8.7,25.3-13.5
			c20.5-5.9,27.2,30.8,47.8,41.2l0.2,0.8C116,81,83.5,50.2,107.8,27.6c12.8-5.8,27.9-2.9,40.7-10.1C167,9,176.9,29.4,193.9,31.2
			c37.6,8.6,3.5,80.8-12.8,98.4c4.8-17.6,6.7-37.3-8.3-50.6c4.3,13.9,3.2,29.3-3.1,42.5c2.7-13.4-5.6-26.2-15.8-34.2
			c4.8,12.3,9.8,25.1,9.1,38.3l-0.1,0.4c-4.8-8.9-8.2-20.3-17.3-25.7c8.2,10.2,9.6,23.9,10.7,36.5l0.2,0.9
			c-12.1-18.7-36.3-27.9-57.1-33.7l0,0.5c17.7,9.5,37.3,18.8,50.2,34.6l0.8,1.1C134,133,116.6,127.6,98.9,124l0.3,0.1
			c20.3,8.7,39.4,19.6,57.8,31.6l0.7-0.3c-18.8,7.1-39.4,16-51.4,32.7l-0.8,0.5c13-9.3,28.1-15.6,43.9-18.1l0.5-0.1
			c-12.6,11-22.7,27.4-29.3,41.7l-0.8,0.1c11.3-14.7,25.3-28.6,41.2-38.2l-0.2,0.1c-4.3,12.1-6.1,32.5-2.3,42.2l-0.1,0.1
			c1.4-13.6,6-31.9,14.9-44.7l0.3,0.4c12.8,8.7,26.1,18,32.8,31.9l0.4,1.4c-0.1-13.7-9.8-24-18.5-33.5l1.2-0.6
			c15.3,5.4,29.5,13.9,41.5,24.7l0.1-0.7c-7.6-18.1-28.5-24.1-43.4-34.2l-0.1-0.3c16.7-11.1,40.2-5.2,59.4-5.8l-0.2-0.8
			c-13-5.6-27.3-5.7-41.2-7.5l-0.1-0.4c17.8-7.2,36.8-11.3,55.9-12.1c-14.7-5.6-31.3-0.8-46.5,1.4l-0.3-0.7
			c10.8-6.5,22.2-10.8,34.9-11.6c-10.5-1.8-21.6-0.8-31.6,3l-0.3-0.1c10.5-15.7,26.9-26.4,43.2-35.1c21.1-11.4,32.9-3.5,36.4,19.2
			l0.1,0.1c9.7,4.2,23.2,11.9,20.4,24.4c-1.2,4.4-6.2,7.4-6.3,11.9l-0.4,0.1c14.9,16.3-15.2,37.4-30.4,38.4
			c-21.9,0.9-39.4-16.3-61-15l-0.3,0.9c13.4,14,37,15.8,55.4,19.8c25.4,3.3,27.8,21.5,23.3,42.9l0.8-0.3c5.1,7.4,1.2,20.9-8.2,23.2
			c-8.6,4.3-18.7,2.1-27.3,4.3c-6,33-36.3,19.7-53.7,3.5c-11.2-11.9-16.6-27.9-23.6-42.5l0.5-0.1c-2.1,10,0.3,20.8,1.5,30.4
			c-5.1,38.7-39,47.7-67.3,22.1l-1.2,0.9c-18.8,6-29.1-2.4-31.1-21.3l-0.3-0.8c-7.1,4-16.8,2.7-22.8-3.3c-8.9-5.9-3.2-19.6-12-25.3
			c-25.9-10.1-0.1-40.5,14.4-48.2c15.5-7.8,38.3-3.8,50.7-16.7"/>
		<g>
			<path class="st1" d="M117,158.7c-5.1-2.5-10.8-1.2-15.9,0.4c-6.2,1.9-12.4,3.6-18.7,5.2c-12.7,3.2-26.1,5.2-38.9,1.8
				c-1-0.3-1.9-0.4-2.7-0.9c-1-0.5-1.9-1-2.9-1.5c-1.9-1.1-3.8-2.1-5.7-3.3c-3.8-2.4-7.5-5.1-10.4-8.6c-2.8-3.3-4.9-7.3-5-11.7
				c-0.2-4.8,1.3-8.6,4.4-12.2c2.6-3.1,5.8-5.9,7.9-9.5c0.4-0.7,1-1.7,1.1-2.6c0.1-1.1-0.3-2.6-0.5-3.7c-0.3-2.5-0.6-5-0.7-7.6
				c-0.3-5.1-0.1-10.3,1.7-15.1c1-2.5,2.4-4.8,4.2-6.8c1.9-2.1,3.7-3.9,6.5-4.8c2.5-0.8,5.1-0.7,7.7-1c2.4-0.3,4.7-1.1,6.9-2.1
				c4.5-2.1,8.2-5.3,12.2-8.2c1.8-1.3,3.7-2.9,5.9-3.4c1.5-0.3,3.2-0.4,4.7-0.1c3,0.5,5.6,2.1,7.9,4.1c5.6,4.9,9.6,11.6,13.7,17.7
				c4.4,6.4,9.1,12.9,15.6,17.5c0.7,0.5,1.5,1,2.2,1.4c0.2,0.1,0.5,0.3,0.7,0.4c0.1,0,0.7,0.4,0.4,0.1c-0.2-0.2-0.1-0.1,0,0.1
				c0,0.1,0.1,0.3,0.1,0.4c0.3,1.3,2.2,0.7,1.9-0.5c-1.8-9.9-7.2-19-11.7-27.9c-4.6-9.1-9.7-19-9.6-29.5c0-4.9,1.5-9.7,4.3-13.7
				c0.8-1.1,1.6-2.1,2.5-3.1c0.5-0.5,1-1.1,1.5-1.5c0.8-0.6,2.1-1,3.1-1.3c3.1-1.1,6.4-1.7,9.6-2.2c6.8-1.1,13.7-1.5,20.3-3.4
				c5.7-1.7,10.5-5.3,16.6-5.2c9.9,0.3,17.5,8.4,25.9,12.5c2.1,1.1,4.3,2,6.7,2.5c2.1,0.5,4.2,0.7,6.2,1.4c3.1,1.1,5.9,2.9,8.1,5.4
				c4.4,5.2,5.4,12.4,5.3,19c-0.2,8.5-2.2,16.9-4.9,25c-2.8,8.6-6.4,16.9-10.5,24.8c-3.4,6.5-7.1,12.9-11.6,18.6c-0.8,1-1.6,2-2.5,3
				c0.6,0.3,1.1,0.6,1.7,1c2.4-8.9,4.2-18.3,3.3-27.6c-0.9-9.3-4.9-17.7-11.8-24c-0.7-0.6-2,0-1.7,1c4.2,13.7,3.1,28.7-3,41.7
				c0.6,0.3,1.2,0.5,1.8,0.8c2.7-13.9-5.6-26.8-16-35.2c-0.7-0.5-2.1-0.1-1.7,1c2.5,6.3,4.9,12.6,6.7,19.1c0.9,3.3,1.6,6.6,2,9.9
				c0.4,2.9,0.9,6.3,0.3,9.1c0.6-0.1,1.2-0.2,1.8-0.2c-4.9-9.2-8.2-20.3-17.6-26c-1-0.6-1.9,0.7-1.2,1.6c4.3,5.4,6.7,11.9,8.1,18.6
				c0.7,3.3,1.2,6.7,1.6,10.1c0.3,2.7,0.2,5.7,0.9,8.3c0.6-0.3,1.2-0.5,1.8-0.8c-9.9-15.1-26.8-23.8-43.4-29.7
				c-4.7-1.7-9.5-3.1-14.3-4.5c-0.7-0.2-1.2,0.3-1.3,1c0,0.2,0,0.4,0,0.5c0,0.3,0.2,0.7,0.5,0.9c14.6,7.9,29.8,15.2,42.2,26.4
				c3,2.7,6,5.7,8.4,9c0.5-0.5,0.9-0.9,1.4-1.4c-16.7-7.2-34.1-12.7-51.9-16.3c-0.2,0.6-0.4,1.3-0.5,1.9c1.2,0.2,2.6,1,3.7,1.5
				c1.4,0.6,2.7,1.2,4.1,1.9c2.7,1.3,5.4,2.5,8.1,3.9c5.2,2.6,10.3,5.3,15.3,8.1c5,2.8,10,5.7,14.9,8.8c2.5,1.6,5.1,3.1,7.6,4.8
				c1.3,0.8,2.5,1.7,3.8,2.4c0.8,0.5,1.1,0.5,1.9,0.1c1.2-0.5,0.7-2.4-0.5-1.9c-15.5,5.9-31.5,12.5-43.8,23.9
				c-1.8,1.6-3.4,3.4-5,5.2c-1.1,1.3-2.1,3.2-3.6,4.2c0.3,0.6,0.7,1.2,1,1.7c13.1-9.4,28.2-15.4,44.1-18.1c-0.3-0.6-0.6-1.1-1-1.7
				c-6.7,5.9-12.4,12.9-17.3,20.2c-2.5,3.7-4.8,7.5-6.9,11.4c-1,1.8-2,3.7-3,5.6c-0.5,1-1,2-1.5,3c-0.2,0.4-0.4,0.9-0.6,1.3
				c0.4,0,0.4,0,0,0c-0.1,0-0.3,0-0.4,0.1c0.4,0.5,0.8,1,1.1,1.5c11.4-14.7,24.9-28.2,40.9-37.9c1.1-0.7,0.1-2.3-1-1.7
				c-1.1,0.5-1.4,2.9-1.7,4c-0.5,1.9-1,3.8-1.4,5.7c-0.8,4-1.4,8-1.7,12.1c-0.6,7-0.7,14.9,1.9,21.6c0-0.3,0.1-0.5,0.1-0.8
				c0,0,0,0.1-0.1,0.1c0.6,0.2,1.2,0.3,1.9,0.5c1.6-15.3,6-31.4,14.8-44.2c-0.5,0.1-1,0.1-1.6,0.2c1,1.3,2.8,2.1,4.1,3
				c1.7,1.2,3.5,2.4,5.2,3.7c3.5,2.6,7,5.3,10.2,8.2c3.1,2.8,6.1,5.9,8.6,9.3c2,2.7,4.3,5.8,5.1,9.1c0.3,1.1,2,0.9,2-0.3
				c-0.2-13.9-9.9-24.5-18.8-34.2c-0.1,0.5-0.1,1-0.2,1.6c0.4-0.2,0.8-0.4,1.2-0.6c-0.3,0-0.5,0.1-0.8,0.1
				c15.1,5.4,29.1,13.7,41.1,24.5c0.5,0.5,1.5,0.3,1.7-0.4c0.3-1.6-0.6-2.9-1.3-4.3c-0.9-1.7-2-3.4-3.2-5c-2.3-3-5-5.6-8-8
				c-6.2-4.9-13.2-8.5-20.1-12.2c-2-1.1-3.9-2.2-5.9-3.3c-0.9-0.5-1.8-1.1-2.7-1.7c-0.6-0.4-2-0.9-2.3-1.5c-0.1,0.5-0.2,0.9-0.4,1.4
				c8.5-5.6,18.8-6.8,28.7-6.7c10,0,20.1,1.3,30.1,1.1c0.6,0,1.1-0.6,1-1.3c-0.3-1.2-0.7-1.4-1.9-1.9c-1.9-0.8-3.8-1.4-5.7-2
				c-3.7-1.1-7.6-1.9-11.4-2.5c-7.7-1.2-15.6-1.7-23.4-2.6c0.3,0.2,0.6,0.5,1,0.7c0-0.1-0.1-0.3-0.1-0.4c-0.2,0.4-0.5,0.8-0.7,1.2
				c17.7-7.2,36.6-11.3,55.6-12c1.2,0,1.3-1.6,0.3-2c-15.2-5.7-31.6-0.9-47,1.4c0.4,0.2,0.8,0.5,1.2,0.7c-0.1-0.2-0.2-0.5-0.3-0.7
				c-0.2,0.4-0.3,0.8-0.5,1.1c10.5-6.3,22.1-10.6,34.4-11.5c1-0.1,1.4-1.8,0.3-2c-10.8-1.8-21.9-0.8-32.1,3c0.3,0,0.5,0.1,0.8,0.1
				c-0.1,0-0.2-0.1-0.3-0.1c0.1,0.5,0.2,0.9,0.4,1.4c7.1-10.5,16.9-18.8,27.4-25.7c5.3-3.4,10.7-6.5,16.3-9.5
				c4.2-2.2,8.8-4.1,13.6-4.5c3.6-0.3,7.3,0.3,10.3,2.3c3.2,2.1,5.3,5.4,6.9,8.8c0.9,2.1,1.6,4.4,2.2,6.6c0.3,1.2,0.6,2.4,0.8,3.7
				c0.2,1,0.1,2.3,1,2.9c0.8,0.6,2,0.9,2.9,1.3c1.1,0.5,2.3,1.1,3.4,1.7c2.1,1.2,4.2,2.5,6.1,4c4.1,3.2,7.8,7.7,7.8,13.2
				c0,3.2-1.3,5.5-3.2,7.9c-1.7,2.2-3.4,4.4-3.5,7.3c0.2-0.3,0.5-0.6,0.7-1c-0.1,0-0.3,0.1-0.4,0.1c-0.8,0.2-0.9,1.1-0.4,1.7
				c10.7,12-4.3,25.6-14.4,31.3c-6.1,3.4-12.5,5.7-19.6,5.3c-9.4-0.6-18.2-4.3-26.8-7.8c-9.6-3.9-19.5-7.7-30-7.2
				c-0.5,0-0.8,0.3-1,0.7c-0.1,0.3-0.2,0.6-0.3,0.9c-0.1,0.3,0,0.7,0.3,1c11.9,12.3,30.1,15.2,46.2,18.2c4.2,0.8,8.4,1.6,12.5,2.4
				c3.7,0.7,7.3,1.8,10.5,3.7c5.4,3.1,8.8,8.2,10.1,14.2c1.8,7.6,0.6,15.8-0.9,23.3c-0.1,0.7,0.5,1.5,1.2,1.2
				c0.3-0.1,0.5-0.2,0.8-0.3c-0.4-0.2-0.8-0.3-1.1-0.5c3.4,5,2.5,11.9-0.7,16.8c-0.8,1.2-1.9,2.3-3.1,3.2c-1.3,0.9-2.6,1.3-4,1.8
				c-2.1,0.8-4.1,1.6-6.3,2c-2.2,0.4-4.4,0.6-6.6,0.7c-4.7,0.3-9.5,0.3-14.2,1.4c-0.3,0.1-0.6,0.4-0.7,0.7
				c-1.2,6.6-3.7,13.8-9.8,17.4c-4.9,2.9-10.9,2.6-16.2,1.2c-6.3-1.7-12.2-5-17.5-8.7c-2.8-2-5.4-4.1-7.9-6.4
				c-3.6-3.3-6.5-7.8-9.1-12c-5.9-9.8-9.9-20.5-14.9-30.7c-0.2,0.5-0.4,1-0.6,1.5c0.2,0,0.3-0.1,0.5-0.1c-0.4-0.4-0.8-0.8-1.2-1.2
				c-1.1,5.3-1,10.8-0.5,16.2c0.3,2.6,0.6,5.1,1,7.7c0.4,2.6,1.2,5.5,0.8,8.2c-1.2,7.6-3.7,15.2-8.3,21.4
				c-3.8,5.2-9.1,9.3-15.2,11.3c-6.1,2-12.7,2-19,0.4c-8.7-2.2-16.4-7.1-23-13c-0.3-0.3-0.8-0.4-1.2-0.2c-2.5,1.7-6,2.2-9,2.5
				c-2.9,0.3-6,0.1-8.8-0.8c-5.5-1.8-9.1-6.5-11-11.7c-0.7-1.8-1.1-3.7-1.5-5.6c-0.3-1.7-0.3-3.5-1-5c-0.2-0.6-0.8-0.9-1.5-0.6
				c-6,3.2-13.4,2.8-19-1c-1.3-0.9-2.5-2-3.7-3c-1-0.9-1.8-1.9-2.4-3.1c-1.2-2.4-1.7-5.1-2.1-7.7c-0.8-4.9-1.7-10.6-6.2-13.5
				c-1.2-0.8-2.6-1.2-3.8-1.9c-1.1-0.6-2.1-1.3-3.1-2.2c-1.6-1.5-2.9-3.4-3.5-5.5c-1.2-4.2-0.1-8.7,1.7-12.6
				c2.1-4.8,5.3-9.1,8.8-12.9c3.2-3.6,6.9-6.9,10.9-9.6c4.7-3.1,10-4.7,15.5-5.9c13.1-2.7,28.6-2.7,38.6-13c0.9-0.9-0.5-2.3-1.4-1.4
				c-9.5,9.7-24.4,9.8-36.9,12.3c-5.7,1.1-11.3,2.7-16.2,5.9c-4.2,2.7-8,6.1-11.4,9.8c-3.6,4-7,8.4-9.3,13.2
				c-2,4.1-3.3,8.8-2.5,13.4c0.8,4.6,4.1,8.2,8.1,10.4c1.2,0.7,2.7,1.1,3.8,1.9c1.3,0.9,2.2,2.2,2.9,3.6c1.2,2.4,1.6,5.2,2,7.9
				c0.5,3,1,6,2.4,8.7c1.5,2.9,4.2,5.1,6.9,6.8c6.2,4.2,14.5,4.6,21.1,1c-0.5-0.2-1-0.4-1.5-0.6c0.6,1.5,0.6,3.3,0.9,4.9
				c0.4,1.8,0.8,3.7,1.4,5.4c1,3,2.5,5.8,4.5,8.2c4.1,4.7,10.1,6.6,16.2,6.2c3.7-0.2,8-0.8,11.1-2.8c-0.4-0.1-0.8-0.1-1.2-0.2
				c11,9.9,26.1,17.4,41.2,13.9c14.5-3.4,23.4-16.3,26.6-30.2c0.6-2.4,1.4-5.1,1-7.6c-0.4-3.1-0.9-6.2-1.3-9.2
				c-0.9-6.6-1.4-13.3-0.1-19.9c0.2-0.7-0.5-1.4-1.2-1.2c-0.2,0-0.3,0.1-0.5,0.1c-0.7,0.2-0.9,0.9-0.6,1.5c4.7,9.6,8.5,19.7,13.8,29
				c2.6,4.5,5.6,8.8,9.1,12.7c2.4,2.7,5.5,5,8.4,7.2c5.6,4.1,11.7,7.6,18.4,9.6c5.6,1.7,11.9,2.2,17.4-0.4
				c7.4-3.5,10.6-11.7,12-19.3c-0.2,0.2-0.5,0.5-0.7,0.7c4.6-1.1,9.4-1.1,14.2-1.4c2.3-0.1,4.6-0.4,6.9-0.8c2.3-0.5,4.4-1.4,6.6-2.2
				c6.3-2.1,10-7.8,10.7-14.3c0.4-3.5-0.3-7.3-2.3-10.2c-0.2-0.3-0.7-0.6-1.1-0.5c-0.3,0.1-0.5,0.2-0.8,0.3c0.4,0.4,0.8,0.8,1.2,1.2
				c2.5-12.2,4.1-28.1-6.5-37.2c-5.9-5.1-13.4-6.1-20.8-7.6c-8.6-1.7-17.4-3.1-25.9-5.3c-9.5-2.5-18.9-6.3-25.8-13.5
				c0.1,0.3,0.2,0.6,0.3,1c0.1-0.3,0.2-0.6,0.3-0.9c-0.3,0.2-0.6,0.5-1,0.7c20.1-1,36.6,13.6,56.3,15c7.4,0.5,14.3-1.8,20.7-5.4
				c6.3-3.5,12.4-8.3,16.3-14.5c1.9-3,3.2-6.5,3.1-10.1c-0.1-3.8-1.8-7.2-4.3-10c-0.1,0.6-0.3,1.1-0.4,1.7c0.1,0,0.3-0.1,0.4-0.1
				c0.4-0.1,0.7-0.5,0.7-1c0.2-2.8,2.3-5,3.9-7.1c1.6-2.2,2.6-4.4,2.8-7.1c0.3-4.8-1.9-9.3-5.2-12.7c-3.5-3.7-7.9-6.3-12.4-8.5
				c-0.9-0.4-2.4-0.8-3.1-1.4c-0.1,0-0.1,0-0.2-0.1c-0.2,0-0.2-0.1-0.1-0.1c-0.1-0.2-0.1-0.6-0.1-0.9c-0.1-0.8-0.3-1.7-0.5-2.5
				c-0.5-2.5-1.2-4.9-2.1-7.2c-2.9-7.4-8.3-13.5-16.7-14c-4.5-0.3-9,1-13.1,2.7c-5.8,2.4-11.3,5.7-16.6,8.9
				c-12.5,7.6-24.1,16.9-32.4,29.1c-0.3,0.4-0.1,1.2,0.4,1.4c1,0.4,1.6,0,2.6-0.3c1.2-0.4,2.5-0.8,3.7-1.2c2.8-0.8,5.8-1.4,8.7-1.7
				c5.7-0.7,11.5-0.5,17.1,0.4c0.1-0.7,0.2-1.3,0.3-2c-12.7,0.9-24.5,5.3-35.4,11.8c-0.3,0.2-0.6,0.7-0.5,1.1
				c0.1,0.2,0.2,0.5,0.3,0.7c0.2,0.5,0.6,0.8,1.2,0.7c15.1-2.2,31-7,45.9-1.4c0.1-0.7,0.2-1.3,0.3-2c-19.3,0.8-38.3,4.9-56.2,12.1
				c-0.5,0.2-0.8,0.7-0.7,1.2c0,0.1,0.1,0.3,0.1,0.4c0.1,0.5,0.5,0.7,1,0.7c7.2,0.9,14.5,1.3,21.7,2.4c3.5,0.5,7,1.2,10.4,2
				c1.8,0.5,3.5,1,5.2,1.6c0.7,0.3,1.6,0.8,2.3,0.9c0.7,0.1,0.6-0.1,0.8,0.6c0.3-0.4,0.6-0.8,1-1.3c-15.9,0.4-32.2-3.2-47.9,0.7
				c-4.2,1.1-8.3,2.8-12,5.2c-0.5,0.3-0.6,0.9-0.4,1.4c0.6,1.2,2.5,2,3.7,2.7c1.6,1,3.2,1.9,4.9,2.9c3.2,1.8,6.5,3.5,9.8,5.4
				c6.5,3.6,13,7.5,18.2,13c3,3.1,5.3,6.7,7,10.6c0-0.3-0.1-0.5-0.1-0.8c0,0.2-0.1,0.5-0.1,0.7c0.6-0.1,1.1-0.3,1.7-0.4
				c-6.7-6.1-14.1-11.4-22-15.9c-3.9-2.2-7.9-4.2-12-6c-2-0.9-4-1.7-6-2.4c-0.9-0.3-1.8-0.9-2.7-0.6c-0.4,0.1-0.8,0.4-1.2,0.6
				c-0.6,0.3-0.6,1.1-0.2,1.6c8.5,9.3,18,19.5,18.2,32.8c0.7-0.1,1.3-0.2,2-0.3c-0.8-3.3-2.9-6.3-4.9-9c-2.5-3.5-5.5-6.7-8.6-9.6
				c-3.1-2.9-6.5-5.6-10-8.2c-1.8-1.3-3.6-2.6-5.4-3.8c-0.9-0.6-1.9-1.3-2.8-1.9c-0.7-0.5-1.6-0.9-2.1-1.6c-0.4-0.5-1.2-0.3-1.6,0.2
				c-9,13.1-13.3,29.6-15,45.2c-0.1,1,1.5,1.4,1.9,0.5c0.5-1.1-0.4-2.6-0.7-3.6c-0.4-1.6-0.7-3.2-0.8-4.8c-0.4-3.8-0.4-7.7-0.2-11.5
				c0.2-4.1,0.7-8.2,1.5-12.3c0.3-1.8,0.8-3.6,1.2-5.4c0.2-0.9,0.5-1.8,0.8-2.7c0.1-0.4,0.2-0.7,0.4-1.1c0.1-0.2,0.2-0.5,0.2-0.7
				c-0.3,0.2-0.3,0.3-0.2,0.2c-0.3-0.6-0.7-1.2-1-1.7c-16.3,9.9-30,23.6-41.6,38.6c-0.6,0.8,0.4,1.6,1.1,1.5c0.6-0.1,1-0.1,1.4-0.6
				c0.6-0.7,1-2.1,1.4-2.9c0.9-1.9,1.9-3.7,2.9-5.6c2.2-4.1,4.5-8,7-11.9c5.1-7.7,10.9-15,17.9-21.1c0.8-0.7-0.1-1.8-1-1.7
				c-16.1,2.7-31.3,8.8-44.6,18.3c-1,0.7-0.1,2.4,1,1.7c1.3-0.8,2-2.1,2.9-3.2c1.3-1.6,2.7-3.2,4.2-4.7c3-3,6.2-5.6,9.6-8
				c6.8-4.8,14.3-8.6,22-11.9c4.3-1.9,8.7-3.6,13.2-5.3c-0.2-0.6-0.4-1.3-0.5-1.9c-0.2,0.1-0.5,0.2-0.7,0.3c0.3,0,0.5,0.1,0.8,0.1
				c-9.5-6.2-19.1-12-29-17.5c-4.9-2.7-9.9-5.3-14.9-7.7c-2.5-1.2-5-2.4-7.6-3.6c-1.3-0.6-2.6-1.2-3.8-1.7c-1-0.4-2.1-1.1-3.2-1.3
				c-1.2-0.2-1.8,1.7-0.5,1.9c17.6,3.6,34.9,9,51.4,16.1c0.8,0.3,2-0.5,1.4-1.4c-9.8-13-24.5-21.6-38.6-29.3
				c-4.2-2.3-8.5-4.5-12.7-6.8c0.2,0.3,0.3,0.6,0.5,0.9c0-0.2,0-0.4,0-0.5c-0.4,0.3-0.8,0.6-1.3,1c16.6,4.6,33.7,10.7,46.9,22.3
				c3.7,3.2,6.9,6.9,9.6,11c0.6,0.9,2.1,0.4,1.8-0.8c-0.8-2.9-0.7-6.2-1-9.2c-0.4-3.4-0.9-6.8-1.7-10.1c-1.5-6.7-4.1-13.1-8.4-18.5
				c-0.4,0.5-0.8,1-1.2,1.6c9.1,5.5,12.2,16.5,16.9,25.3c0.4,0.7,1.7,0.6,1.8-0.2c0.6-2.8,0.2-6-0.2-8.8c-0.4-3.5-1-6.9-1.9-10.2
				c-1.8-6.9-4.4-13.5-7-20.2c-0.6,0.3-1.1,0.6-1.7,1c9.9,7.8,18.1,20.1,15.5,33.2c-0.2,1,1.3,1.9,1.8,0.8c6.3-13.5,7.5-29,3.2-43.2
				c-0.6,0.3-1.1,0.6-1.7,1c6.8,6.1,10.6,14.4,11.3,23.4c0.7,8.9-1,17.7-3.3,26.2c-0.3,0.9,1,1.7,1.7,1c4.7-5.1,8.4-11.2,11.8-17.2
				c4.4-7.9,8.3-16.2,11.4-24.6c3.1-8.5,5.6-17.3,6.6-26.3c0.7-7.2,0.5-15.1-3.1-21.6c-1.6-2.9-3.8-5.3-6.5-7.1
				c-1.5-1-3.1-1.7-4.7-2.3c-2.1-0.8-4.3-1-6.4-1.5c-10-2.5-17.2-10.7-26.8-14c-4.8-1.6-9.9-1.5-14.7,0.4c-1.4,0.6-2.8,1.4-4.2,2
				c-1.8,0.8-3.6,1.4-5.5,1.9c-3.5,1-7,1.5-10.6,2c-6.8,0.9-13.8,1.5-20.2,4.1c-1.5,0.6-2.3,1.2-3.4,2.4c-1,1-1.9,2.2-2.8,3.3
				c-1.5,2.1-2.7,4.5-3.6,6.9c-3.3,9.9,0.1,20.4,4.1,29.5c4.4,10,10.4,19.4,14.1,29.8c0.8,2.2,1.4,4.5,1.9,6.8
				c0.6-0.2,1.3-0.4,1.9-0.5c-0.2-0.8-0.2-1.1-0.9-1.6c-0.8-0.5-1.7-1-2.6-1.5c-1.7-1.1-3.3-2.4-4.8-3.8c-3-2.8-5.6-6.1-8-9.4
				c-4.7-6.5-8.7-13.5-14.1-19.5c-4.4-4.8-10-8.5-16.8-7.4c-2.3,0.4-4,1.6-5.9,2.9c-2.1,1.5-4.1,3-6.1,4.5c-4.2,3.1-8.8,6-14.2,6.4
				c-2.7,0.2-5.3,0.3-7.9,1.3c-2.5,1-4.2,2.5-6.1,4.5c-3.6,3.8-5.8,8.5-6.6,13.7c-0.8,5.1-0.5,10.2,0.1,15.3c0.1,1.3,0.3,2.7,0.5,4
				c0.2,1.4,0.2,2.3-0.5,3.6c-1.1,1.9-2.5,3.6-4,5.2c-2.8,3.1-5.9,6.1-7.5,10.1c-1.6,4.1-1.5,9.2,0,13.3
				c3.1,8.5,11.3,14.1,18.8,18.4c1.9,1.1,3.8,2.3,5.8,3.2c2.6,1.1,5.8,1.5,8.6,1.9c6.5,0.9,13,0.7,19.5-0.2
				c6.6-0.9,13.2-2.5,19.6-4.2c3.3-0.9,6.6-1.8,9.8-2.8c2.9-0.8,5.8-1.9,8.9-2.4c3.1-0.6,6.3-0.6,9.2,0.8
				C117.1,161,118.1,159.3,117,158.7L117,158.7z"/>
		</g>
	</g>
</g>
<g class="st0">
	<path class="st2" d="M254.8,43.1c-4.8,8.1-9.6,16.1-14.4,24.2l-0.5,0.5c-3.4,5.8-7.1,11.3-10.8,16.8c-1.2,1.7-2.4,3.5-3.6,5.2
		c-4.3,6.4-8.6,12.8-13.6,18.7l0.3-0.1c-2.2,2.7-4.4,5.4-6.6,8c-2,2.5-4.1,5-6.4,7.3c-2.1,2-4.3,3.9-6.3,6c-1.2,1.3-2.3,2.8-3.5,4.1
		c-1.2,1.3-2.6,2.4-4,3.5c-4.1,3.3-8.1,6.6-12.2,9.9l0.1,0c-2.7,2.6-8.2,8.6-5.2,12.4c4.1,5.1,9.6-0.2,13.3-2.7l-0.1-0.1
		c10.7-7.9,20.3-17.3,28.3-27.9c8.9-11.8,15.9-24.9,22.7-38c8.4-16,16.6-32,23.2-48.8L254.8,43.1z"/>
</g>
<g class="st0">
	<path class="st3" d="M225,55.1c0.5-1.8,1.8-3.3,3.4-4.2c1.6-0.9,3.6-1.1,5.4-0.6c0.6,0.2,1.2,0.5,1.6,0.9c0.3,0.3,0.5,0.8,0.6,1.2
		c0.8,2.1,1.5,4.4,0.7,6.5c-1,2.6-4.2,4.1-6.9,3.3s-4.6-3.5-4.8-6.3"/>
	<g>
		<path class="st3" d="M225.2,55.2c0.7-2.4,2.7-4.2,5.1-4.8c1.2-0.3,2.6-0.2,3.8,0.2c1.4,0.5,1.8,2,2.3,3.3c0.7,2.3,0.8,5-1.2,6.8
			c-1.6,1.4-3.9,1.8-5.9,1c-2.3-1-3.8-3.4-4-5.8c0-0.3-0.5-0.3-0.5,0c0.2,2.4,1.5,4.8,3.7,6c2.1,1.1,4.6,0.9,6.5-0.4
			c2.3-1.6,2.7-4.4,2-6.9c-0.2-0.7-0.4-1.5-0.7-2.2c-0.3-0.6-0.6-1.2-1.1-1.7c-1-0.8-2.6-1-3.9-0.9c-3.1,0.2-5.7,2.3-6.6,5.3
			C224.6,55.4,225.1,55.5,225.2,55.2L225.2,55.2z"/>
	</g>
</g>
<g class="st0">
	<path class="st3" d="M234.9,43.6c-0.1-2.3,0.8-4.7,2.6-6.1c1.9-1.4,4.7-1.4,6.4,0.2c0.7,0.6,1.1,1.4,1.5,2.3
		c0.4,0.8,0.6,1.7,0.6,2.6c0,1.3-0.6,2.5-1.5,3.5c-1.4,1.7-3.8,2.8-5.9,2.3C236.5,47.9,234.9,45.8,234.9,43.6"/>
	<g>
		<path class="st3" d="M235.2,43.6c-0.1-2.2,0.7-4.6,2.5-5.9c1.7-1.2,4.2-1.4,5.8,0c0.9,0.7,1.5,1.9,1.9,3c0.4,1.3,0.5,2.6-0.1,3.8
			c-1,2.1-3.2,3.7-5.5,3.8C237.2,48.3,235.2,46.1,235.2,43.6c0-0.2-0.5-0.2-0.5,0.1c0,2.3,1.6,4.5,3.9,5c2.6,0.6,5.2-1,6.6-3
			c0.8-1.1,1.2-2.5,1-3.8c-0.2-1.3-0.8-2.7-1.6-3.8c-1.5-1.9-4.1-2.3-6.2-1.3c-2.6,1.2-3.8,4.1-3.7,6.8
			C234.7,43.9,235.2,43.9,235.2,43.6L235.2,43.6z"/>
	</g>
</g>
<g class="st0">
	<path class="st3" d="M243.6,24.4c0.8-1.3,2.3-2.2,3.9-2.4s3.1,0,4.6,0.5c0.3,0.1,0.6,0.2,0.9,0.4c0.3,0.2,0.5,0.6,0.7,0.9
		c0.9,1.6,1.3,3.5,0.9,5.3c-0.4,1.8-1.7,3.4-3.4,4c-0.9,0.3-1.9,0.3-2.8,0.1c-0.5-0.1-1.1-0.2-1.5-0.4c-0.5-0.3-1-0.7-1.3-1.2
		c-1.5-1.9-2.2-4.4-1.9-6.8"/>
	<g>
		<path class="st3" d="M243.8,24.5c1.2-1.9,3.6-2.5,5.7-2.3c0.6,0.1,1.2,0.2,1.7,0.3c0.6,0.2,1.3,0.3,1.8,0.8
			c0.8,0.8,1.2,2.1,1.4,3.2c0.4,2.1-0.2,4.5-2,5.8c-0.9,0.7-2,0.9-3.1,0.8c-1.3-0.1-2.4-0.3-3.3-1.3c-1.7-1.8-2.5-4.5-2.1-6.9
			c0-0.3-0.4-0.5-0.5-0.1c-0.4,2.5,0.3,5,1.8,6.9c0.8,1.1,1.8,1.6,3.1,1.8c1.3,0.2,2.6,0.1,3.7-0.5c2.1-1.1,3.1-3.5,2.9-5.8
			c-0.1-1.3-0.5-2.5-1.2-3.6c-0.7-1.1-1.9-1.5-3.1-1.7c-2.7-0.6-5.7,0-7.3,2.4C243.2,24.5,243.6,24.8,243.8,24.5L243.8,24.5z"/>
	</g>
</g>
<g class="st0">
	<path class="st3" d="M261.9,14.5c-1.9,0.6-2.8,3-2.3,4.9c0.5,1.9,2.2,3.4,4.1,4.1c1.7,0.7,3.9,0.8,5.3-0.4c1.2-1.1,1.5-2.9,1.6-4.6
		c0-1,0-2-0.5-2.9c-0.3-0.5-0.7-0.8-1.2-1.1c-1.8-1.1-4-1.2-6-0.5"/>
	<g>
		<path class="st3" d="M261.8,14.3c-1.9,0.7-2.9,2.9-2.6,4.8c0.4,2.3,2.4,4,4.5,4.8c2.1,0.8,4.7,0.7,6-1.3c0.6-0.9,0.8-2.1,0.9-3.2
			c0.1-1.1,0.2-2.4-0.3-3.5c-0.6-1.2-2.1-1.9-3.3-2.2c-1.4-0.4-2.9-0.3-4.3,0.2c-0.3,0.1-0.2,0.6,0.1,0.5c2.1-0.8,4.7-0.6,6.4,0.9
			c0.9,0.8,1,2,1,3.1c0,1-0.1,2-0.5,3c-1.7,4.6-8.2,2-9.7-1.3c-0.9-1.9-0.2-4.6,1.9-5.3C262.3,14.6,262.1,14.1,261.8,14.3
			L261.8,14.3z"/>
	</g>
</g>
<g class="st0">
	<path class="st3" d="M264.5,35.3c0.7-2.8,3.4-4.9,6.3-4.8c2.8,0.1,5.5,2.4,6,5.1c0.2,1.2,0.1,2.5-0.6,3.5c-0.7,1-1.7,1.6-2.9,1.9
		c-1.8,0.5-3.9,0.2-5.5-0.8c-1.6-1-2.8-2.8-3.1-4.6"/>
	<g>
		<path class="st3" d="M264.7,35.4c0.5-2.1,2.2-3.7,4.2-4.3c2.1-0.6,4.3,0,5.8,1.5c1.6,1.6,2.4,4.1,1.3,6.2c-1.1,2.1-4,2.7-6.2,2.2
			c-2.6-0.6-4.5-2.7-5-5.3c-0.1-0.3-0.5-0.2-0.5,0.1c0.5,2.5,2.2,4.7,4.7,5.5c2.3,0.8,5.4,0.4,7-1.6c1.6-2,1.1-4.9-0.3-6.8
			c-1.4-1.8-3.6-2.9-5.9-2.6c-2.6,0.3-4.9,2.3-5.6,4.9C264.2,35.6,264.7,35.7,264.7,35.4L264.7,35.4z"/>
	</g>
</g>
<g class="st0">
	<path class="st3" d="M259.6,51.6c0.2-1.9,1.7-3.5,3.4-4.1c1.8-0.6,3.8-0.3,5.4,0.6c0.6,0.3,1.2,0.8,1.6,1.3c0.8,1,0.9,2.3,1.1,3.6
		c0.1,1,0.1,2-0.2,3c-0.4,1.1-1.4,1.9-2.5,2.3c-1.1,0.4-2.3,0.5-3.5,0.4c-0.8-0.1-1.7-0.2-2.4-0.6c-0.6-0.4-1-0.9-1.3-1.5
		c-0.9-1.4-1.4-3-1.5-4.7"/>
	<g>
		<path class="st3" d="M259.8,51.6c0.3-2.1,2.1-3.7,4.1-4.1c2.1-0.4,4.9,0.5,6.1,2.5c0.6,1,0.7,2.2,0.8,3.3c0.1,1.2,0.1,2.4-0.6,3.4
			c-1.4,2-4.3,2.2-6.5,1.7c-2.6-0.6-3.7-4-3.9-6.4c0-0.3-0.5-0.3-0.5,0c0.1,1.4,0.4,2.7,1.1,3.9c0.5,1.1,1.3,2.2,2.4,2.7
			c1.2,0.5,2.8,0.5,4.1,0.4c1.2-0.2,2.3-0.6,3.2-1.4c0.9-0.9,1.3-2,1.3-3.3c0-1.3-0.1-2.7-0.6-3.9c-0.9-2.3-3.7-3.5-6.1-3.4
			c-2.6,0.1-5,2-5.3,4.6C259.3,51.9,259.8,51.9,259.8,51.6L259.8,51.6z"/>
	</g>
</g>
<g class="st0">
	<path class="st3" d="M255,68.2c0.1-1.9,1.5-3.7,3.3-4.3c1.8-0.7,3.9-0.4,5.6,0.6c0.7,0.4,1.4,1,1.8,1.8c0.4,0.7,0.5,1.5,0.5,2.3
		c0,2-0.5,4.2-2.2,5.2c-0.5,0.3-1,0.5-1.5,0.6c-1.9,0.4-3.9,0.1-5.4-1c-1.6-1.1-2.6-2.9-2.6-4.8"/>
	<g>
		<path class="st3" d="M255.3,68.2c0.2-2.2,1.9-3.9,4-4.3c2.1-0.4,5,0.4,6.1,2.3c0.6,1,0.6,2.2,0.5,3.3c-0.1,1-0.3,1.9-0.9,2.8
			c-1.2,2-4,2.3-6.1,1.6c-2.4-0.7-4.2-2.9-4.3-5.5c0-0.3-0.5-0.3-0.5,0c0.1,2.5,1.6,4.7,3.9,5.7c2.1,0.9,5.3,0.9,7-1
			c1.5-1.6,1.9-4.6,1.1-6.7c-0.9-2.3-3.8-3.4-6.1-3.3c-2.7,0.2-5,2.2-5.2,4.9C254.7,68.6,255.2,68.6,255.3,68.2L255.3,68.2z"/>
	</g>
</g>
<text transform="matrix(1 0 0 1 40.4883 122.5752)"><tspan x="0" y="0" class="st4 st5">My</tspan><tspan x="0" y="97.7" class="st4 st5">Malaysia</tspan></text>
</svg>
